<?xml version="1.0" standalone="no"?>
<!DOCTYPE svg PUBLIC "-//W3C//DTD SVG 1.1//EN" "http://www.w3.org/Graphics/SVG/1.1/DTD/svg11.dtd" >
<svg xmlns="http://www.w3.org/2000/svg" xmlns:xlink="http://www.w3.org/1999/xlink" version="1.1">
<metadata>
Created by FontForge 20161013 at Tue Oct  4 18:52:07 2011
 By ,,,
Copyright (c) 2011 by The Entente. All rights reserved. wf-rip
</metadata>
<defs>
<font id="Relative-12Pitch" horiz-adv-x="1024" >
  <font-face 
    font-family="Relative 12 Pitch"
    font-weight="400"
    font-stretch="normal"
    units-per-em="2048"
    panose-1="2 0 5 6 0 0 0 2 0 4"
    ascent="1638"
    descent="-410"
    x-height="1028"
    cap-height="1434"
    bbox="-31 -561 1108 1880"
    underline-thickness="102"
    underline-position="-306"
    unicode-range="U+0020-FB02"
  />
<missing-glyph 
d="M102 20v1393q0 20 21 21h778q20 0 21 -21v-1393q0 -20 -21 -20h-778q-21 0 -21 20zM274 164h476v1106h-476v-1106z" />
    <glyph glyph-name="fi" unicode="fi" 
d="M47 897v111q0 20 21 20h131v90q0 145 78.5 240.5t226.5 95.5q88 0 155 -33q16 -8 17 -35v-102q0 -20 -14 -20q-6 0 -15 4q-70 35 -131 35q-158 0 -158 -185v-90h297q20 0 21 -20v-111q0 -20 -21 -20h-297v-857q0 -20 -20 -20h-119q-20 0 -20 20v857h-131q-21 0 -21 20z
M768 1217v176q0 20 20 20h177q20 0 20 -20v-176q0 -20 -20 -21h-177q-20 1 -20 21zM797 20v988q0 20 20 20h119q20 0 20 -20v-988q0 -20 -20 -20h-119q-20 0 -20 20z" />
    <glyph glyph-name="fl" unicode="fl" 
d="M47 897v111q0 20 21 20h131v90q0 145 78.5 240.5t226.5 95.5q88 0 155 -33q16 -8 17 -35v-102q0 -20 -14 -20q-6 0 -15 4q-70 35 -131 35q-158 0 -158 -185v-90h297q20 0 21 -20v-111q0 -20 -21 -20h-297v-857q0 -20 -20 -20h-119q-20 0 -20 20v857h-131q-21 0 -21 20z
M797 20v1393q0 20 20 21h119q20 0 20 -21v-1393q0 -20 -20 -20h-119q-20 0 -20 20z" />
    <glyph glyph-name=".notdef" 
d="M102 20v1393q0 20 21 21h778q20 0 21 -21v-1393q0 -20 -21 -20h-778q-21 0 -21 20zM274 164h476v1106h-476v-1106z" />
    <glyph glyph-name=".null" horiz-adv-x="0" 
 />
    <glyph glyph-name="nonmarkingreturn" horiz-adv-x="0" 
 />
    <glyph glyph-name="space" unicode=" " 
 />
    <glyph glyph-name="exclam" unicode="!" 
d="M391 20v201q0 20 21 21h200q20 0 21 -21v-201q0 -20 -21 -20h-200q-21 0 -21 20zM426 399v1014q0 20 20 21h132q20 0 20 -21v-1014q0 -20 -20 -20h-132q-20 0 -20 20z" />
    <glyph glyph-name="quotedbl" unicode="&#x22;" 
d="M238 983v430q0 20 20 21h119q20 0 20 -21v-430q0 -20 -20 -20h-119q-20 0 -20 20zM627 983v430q0 20 20 21h119q20 0 20 -21v-430q0 -20 -20 -20h-119q-20 0 -20 20z" />
    <glyph glyph-name="numbersign" unicode="#" 
d="M51 426v123q0 20 21 20h157l45 295h-120q-20 0 -21 21v123q0 20 21 20h147l61 385q2 20 23 21h131q18 0 19 -21l-62 -385h193l61 385q2 20 23 21h131q18 0 18 -21l-61 -385h133q20 0 20 -20v-123q0 -20 -20 -21h-158l-45 -295h121q20 0 20 -20v-123q0 -20 -20 -20h-148
l-61 -386q-2 -20 -23 -20h-131q-18 0 -18 20l61 386h-192l-62 -386q-2 -20 -22 -20h-131q-18 0 -19 20l62 386h-133q-21 0 -21 20zM401 569h195l45 295h-195z" />
    <glyph glyph-name="dollar" unicode="$" 
d="M66 424q0 20 20 20h131q20 0 21 -20q0 -98 45 -171t129 -99v534q-317 123 -318 381q0 158 89 257t229 122v170q0 20 20 20h131q20 0 21 -20v-172q154 -27 236.5 -134.5t82.5 -256.5q0 -20 -20 -21h-131q-20 0 -21 21q0 76 -38 136t-109 85v-471q184 -66 270 -150t86 -235
q0 -176 -99.5 -294t-256.5 -140v-170q0 -20 -21 -21h-131q-20 0 -20 21v174q-158 29 -252 144.5t-94 289.5zM266 1081q0 -137 146 -211v414q-146 -39 -146 -203zM584 150q184 39 184 256q0 82 -45 134t-139 91v-481z" />
    <glyph glyph-name="percent" unicode="%" 
d="M37 1153q0 139 87 220t203.5 81t203.5 -81t87 -220t-87 -220t-203.5 -81t-203.5 81t-87 220zM115 477q0 6 8 15l682 540q10 6 14 6q6 0 15 -10l45 -57q6 -8 6 -14.5t-8 -14.5l-682 -541q-10 -6 -15 -6q-6 0 -14 11l-45 57q-6 8 -6 14zM156 1153q0 -88 50 -139t121.5 -51
t122 51t50.5 139t-50.5 139t-122 51t-121.5 -51t-50 -139zM381 280.5q0 139.5 87 220.5t203.5 81t204 -81t87.5 -220.5t-87.5 -220t-204 -80.5t-203.5 80.5t-87 220zM500 281q0 -88 50 -139.5t121.5 -51.5t122 51.5t50.5 139.5t-50.5 139t-122 51t-121.5 -51t-50 -139z" />
    <glyph glyph-name="ampersand" unicode="&#x26;" 
d="M72 403q0 264 245 433q-53 94 -75.5 160.5t-22.5 148.5q0 131 87 220t226 89q141 0 225.5 -82t84.5 -194q0 -131 -65.5 -217.5t-231.5 -172.5l203 -346q4 33 4 105v170q0 18 20 18h199q20 0 20 -20v-123q0 -20 -20 -21h-60v-26q0 -164 -49 -291l121 -221q6 -12 6 -19
q0 -14 -16 -14h-135q-14 0 -27 18l-45 76q-111 -115 -295 -114q-180 0 -289.5 115t-109.5 308zM244 403q0 -127 68.5 -195.5t158.5 -68.5q131 0 205 103l-277 456q-155 -123 -155 -295zM383 1145q0 -86 84 -223q125 61 168 107t43 128q0 66 -40 106t-105.5 40t-107.5 -42
t-42 -116z" />
    <glyph glyph-name="quotesingle" unicode="'" 
d="M432 983v430q0 20 21 21h118q20 0 21 -21v-430q0 -20 -21 -20h-118q-21 0 -21 20z" />
    <glyph glyph-name="parenleft" unicode="(" 
d="M348 311v408q0 244 75 394.5t292 330.5q10 6 14 6q6 0 14 -8l82 -96q6 -10 6 -15q0 -6 -8 -14q-137 -119 -195.5 -193.5t-83 -177t-24.5 -291.5v-280q0 -188 24.5 -290.5t83 -177.5t195.5 -194q8 -8 8 -14t-6 -14l-82 -97q-8 -8 -14 -8q-4 0 -14 6q-217 180 -292 330.5
t-75 394.5z" />
    <glyph glyph-name="parenright" unicode=")" 
d="M193 -301q0 6 8 14q137 119 195.5 194t83 177t24.5 291v280q0 188 -24.5 291t-83 177.5t-195.5 193.5q-8 8 -8 14q0 4 6 15l82 96q8 8 14 8q4 0 14 -6q217 -180 292 -330.5t75 -394.5v-408q0 -244 -75 -394t-292 -331q-10 -6 -14 -6q-6 0 -14 8l-82 97q-6 8 -6 14z" />
    <glyph glyph-name="asterisk" unicode="*" 
d="M158 1133q0 4 2 10l33 96q6 16 16 16q4 0 10 -2l221 -71v231q0 20 21 21h102q20 0 21 -21v-231l221 71q6 2 10 2q10 0 16 -16l33 -96q2 -6 2 -10q0 -10 -16 -17l-219 -74l135 -186q6 -8 6 -14q0 -8 -10 -17l-82 -59q-8 -6 -14 -6q-10 0 -17 10l-137 188l-137 -188
q-6 -10 -17 -10q-6 0 -14 6l-82 59q-10 8 -10 17q0 6 6 14l135 186l-219 74q-16 7 -16 17z" />
    <glyph glyph-name="plus" unicode="+" 
d="M131 641v119q0 20 21 20h280v281q0 20 21 20h118q20 0 21 -20v-281h280q20 0 21 -20v-119q0 -20 -21 -20h-280v-281q0 -20 -21 -21h-118q-20 0 -21 21v281h-280q-21 0 -21 20z" />
    <glyph glyph-name="comma" unicode="," 
d="M387 20v209q0 20 21 21h208q20 0 21 -21v-288q0 -166 -158 -166h-71q-20 0 -21 20v74q0 20 21 20q57 0 75.5 19.5t18.5 77.5v14h-94q-21 0 -21 20z" />
    <glyph glyph-name="hyphen" unicode="-" 
d="M147 641v119q0 20 21 20h688q20 0 21 -20v-119q0 -20 -21 -20h-688q-21 0 -21 20z" />
    <glyph glyph-name="period" unicode="." 
d="M387 20v209q0 20 21 21h208q20 0 21 -21v-209q0 -20 -21 -20h-208q-21 0 -21 20z" />
    <glyph glyph-name="slash" unicode="/" 
d="M96 10q0 4 2 10l621 1393q8 20 29 21h133q14 0 14 -11q0 -4 -2 -10l-621 -1393q-8 -20 -28 -20h-133q-15 0 -15 10z" />
    <glyph glyph-name="zero" unicode="0" 
d="M61 716.5q0 354.5 117 546t334 191.5t334 -191.5t117 -546t-117 -545.5t-334 -191t-334 191t-117 545.5zM233 717q0 -305 80 -453l281 1016q-35 14 -82 14q-279 1 -279 -577zM430 154q35 -14 82 -15q279 0 279 578q0 305 -80 452z" />
    <glyph glyph-name="one" unicode="1" 
d="M184 20v119q0 20 21 21h262v1046l-225 -123q-12 -6 -23 -6q-14 0 -14 19v141q0 20 22 31l283 155q16 10 31 11h73q20 0 21 -21v-1253h262q20 0 21 -21v-119q0 -20 -21 -20h-692q-21 0 -21 20z" />
    <glyph glyph-name="two" unicode="2" 
d="M119 1055q2 174 114.5 286.5t280.5 112.5q201 0 300 -118.5t99 -301.5q0 -117 -49 -217t-141 -213l-371 -444h557q20 0 21 -21v-119q0 -20 -21 -20h-768q-20 0 -20 20v86q0 29 22 48l457 544q84 100 114.5 176t30.5 168q0 252 -231 252q-106 0 -166.5 -66.5t-64.5 -172.5
q0 -27 -27 -27h-113q-24 0 -24 27z" />
    <glyph glyph-name="three" unicode="3" 
d="M82 408q0 33 27 32h108q27 0 29 -26q12 -129 78.5 -202t177.5 -73q119 0 183.5 72t64.5 207q0 129 -72 197.5t-207 68.5h-61q-23 0 -23 23v114q0 23 23 23h53q111 0 176.5 60.5t65.5 174.5q0 100 -53.5 157.5t-152 57.5t-156.5 -61.5t-71 -159.5q-2 -25 -26 -24h-111
q-27 0 -26 30q18 170 122.5 272.5t268.5 102.5q168 0 266 -104.5t98 -249.5q0 -121 -42 -197t-132 -129q227 -90 228 -362q0 -186 -112 -309t-304 -123q-180 0 -294 120t-126 308z" />
    <glyph glyph-name="four" unicode="4" 
d="M70 315v76q0 18 16 47l541 979q10 16 26 17h111q20 0 20 -21v-958h140q20 0 20 -21v-119q0 -20 -20 -20h-140v-275q0 -20 -22 -20h-125q-20 0 -21 20v275h-526q-20 0 -20 20zM281 455h335v620z" />
    <glyph glyph-name="five" unicode="5" 
d="M98 379q0 31 25 31h117q23 0 26 -31q47 -240 258 -240q127 0 189.5 89t62.5 237q0 326 -244 326q-137 0 -249 -117q-18 -18 -35 -19h-119q-20 0 -20 21l86 737q2 20 20 21h635q20 0 20 -21v-119q0 -20 -20 -20h-510l-61 -436q49 49 124.5 80.5t153.5 31.5
q188 0 287.5 -126t99.5 -355q0 -217 -111.5 -353t-308.5 -136q-178 0 -298 118.5t-128 280.5z" />
    <glyph glyph-name="six" unicode="6" 
d="M111 645q0 395 116.5 602t317.5 207q156 0 256 -94t117 -254q0 -20 -23 -21h-123q-18 0 -22 21q-33 197 -205 197q-233 0 -254 -500q106 123 272 123q184 0 286.5 -124t102.5 -349q0 -209 -113.5 -341t-291.5 -132q-199 0 -317.5 164.5t-118.5 500.5zM305 452.5
q0 -143.5 62.5 -228.5t179.5 -85q115 0 176 85t61 228.5t-61 228.5t-176 85q-117 0 -179.5 -85t-62.5 -228.5z" />
    <glyph glyph-name="seven" unicode="7" 
d="M129 1294v119q0 20 21 21h751q20 0 21 -21v-78q0 -23 -11 -51l-397 -1270q-6 -14 -22 -14h-119q-20 0 -21 16q0 6 4 15l383 1243h-589q-21 0 -21 20z" />
    <glyph glyph-name="eight" unicode="8" 
d="M104 406q0 252 201 356q-158 109 -158 313q0 166 103.5 272.5t261.5 106.5t261.5 -106.5t103.5 -272.5q0 -205 -158 -313q201 -104 201 -356q0 -184 -114 -305t-294 -121t-294 121t-114 305zM272 405.5q0 -118.5 64.5 -192.5t175.5 -74t175.5 74t64.5 192.5t-64.5 194.5
t-175.5 76t-175.5 -76t-64.5 -194.5zM307 1067q0 -100 52.5 -168t152.5 -68t152.5 68t52.5 168q0 102 -54.5 166.5t-150.5 64.5t-150.5 -64.5t-54.5 -166.5z" />
    <glyph glyph-name="nine" unicode="9" 
d="M84 981q0 209 113.5 341t291.5 132q199 0 318 -165t119 -501q0 -395 -117 -601.5t-317 -206.5q-156 0 -256.5 94t-116.5 254q0 20 22 20h123q18 0 23 -20q33 -197 205 -197q233 0 253 500q-106 -123 -272 -123q-184 0 -286.5 124t-102.5 349zM252 981q0 -143 61.5 -228
t175.5 -85q117 0 179.5 85t62.5 228t-62.5 228t-179.5 85q-115 0 -176 -85t-61 -228z" />
    <glyph glyph-name="colon" unicode=":" 
d="M387 20v209q0 20 21 21h208q20 0 21 -21v-209q0 -20 -21 -20h-208q-21 0 -21 20zM387 737v209q0 20 21 21h208q20 0 21 -21v-209q0 -20 -21 -20h-208q-21 0 -21 20z" />
    <glyph glyph-name="semicolon" unicode=";" 
d="M387 20v209q0 20 21 21h208q20 0 21 -21v-288q0 -166 -158 -166h-71q-20 0 -21 20v74q0 20 21 20q57 0 75.5 19.5t18.5 77.5v14h-94q-21 0 -21 20zM387 737v209q0 20 21 21h208q20 0 21 -21v-209q0 -20 -21 -20h-208q-21 0 -21 20z" />
    <glyph glyph-name="less" unicode="&#x3c;" 
d="M137 528v140q0 14 21 26l690 377q4 2 10 2q10 0 10 -14v-148q0 -16 -20 -28l-522 -285l522 -285q20 -12 20 -28v-148q0 -14 -10 -14q-6 0 -10 2l-690 377q-21 12 -21 26z" />
    <glyph glyph-name="equal" unicode="=" 
d="M131 348v119q0 20 21 20h720q20 0 21 -20v-119q0 -20 -21 -20h-720q-21 0 -21 20zM131 764v119q0 20 21 20h720q20 0 21 -20v-119q0 -20 -21 -21h-720q-21 1 -21 21z" />
    <glyph glyph-name="greater" unicode="&#x3e;" 
d="M156 137v148q0 16 20 28l522 285l-522 285q-20 12 -20 28v148q0 14 10 14q6 0 10 -2l690 -377q20 -12 21 -26v-140q0 -14 -21 -26l-690 -377q-4 -2 -10 -2q-10 0 -10 14z" />
    <glyph glyph-name="question" unicode="?" 
d="M123 1069q10 164 112.5 274.5t272.5 110.5q182 0 281.5 -99.5t99.5 -264.5q0 -80 -31 -146.5t-75 -113.5l-88 -91q-44 -45 -74.5 -104.5t-30.5 -126.5v-109q0 -20 -21 -20h-131q-20 0 -20 20v95q0 106 47 192t102.5 134t102.5 119t47 151q0 96 -54.5 148t-154.5 52
q-90 0 -148.5 -60.5t-68.5 -160.5q-2 -20 -21 -20h-127q-20 0 -20 20zM383 20v201q0 20 20 21h201q20 0 21 -21v-201q0 -20 -21 -20h-201q-20 0 -20 20z" />
    <glyph glyph-name="at" unicode="@" 
d="M45 592q0 387 130 614.5t378 227.5q201 0 311.5 -119t110.5 -320v-817q0 -18 -19 -18h-106q-18 0 -19 18v49q-63 -84 -202 -84q-147 0 -241.5 119t-94.5 330t94 329.5t242 118.5q150 0 202 -88v54q0 137 -73.5 212.5t-204.5 75.5q-356 0 -356 -702q0 -365 95 -529.5
t286 -164.5q90 0 153.5 23.5t153.5 90.5q6 4 10 4q8 0 14 -8l62 -90q4 -8 4 -10q0 -4 -8 -12q-104 -78 -190.5 -108t-198.5 -30q-533 0 -533 834zM444 592q0 -164 56.5 -236.5t146.5 -72.5q197 0 197 309t-197 309q-90 0 -146.5 -72.5t-56.5 -236.5z" />
    <glyph glyph-name="A" unicode="A" 
d="M27 20q0 6 2 13l379 1380q6 20 20 21h168q14 0 20 -21l379 -1380q2 -6 2 -13q0 -20 -22 -20h-139q-18 0 -25 20l-94 375h-410l-94 -375q-6 -20 -25 -20h-139q-22 0 -22 20zM348 559h328l-164 653z" />
    <glyph glyph-name="B" unicode="B" 
d="M152 20v1393q0 20 20 21h352q174 0 277.5 -97.5t103.5 -257.5q0 -209 -164 -319q225 -88 226 -352q0 -180 -109.5 -294t-296.5 -114h-389q-20 0 -20 20zM324 170h225q246 0 246 250q0 121 -63.5 186.5t-182.5 65.5h-225v-502zM324 836h208q201 0 201 215q0 98 -52 155.5
t-149 57.5h-208v-428z" />
    <glyph glyph-name="C" unicode="C" 
d="M74 716.5q0 362.5 130 550t341 187.5q193 0 311.5 -132t124.5 -329q0 -20 -23 -20h-124q-25 0 -25 20q-6 133 -75.5 215t-188.5 82q-139 0 -215 -143t-76 -430t76 -430.5t215 -143.5q119 0 188.5 82t75.5 215q0 20 25 21h124q23 0 23 -21q-6 -197 -125 -328.5
t-311 -131.5q-211 0 -341 187t-130 549.5z" />
    <glyph glyph-name="D" unicode="D" 
d="M121 20v1393q0 20 20 21h246q268 0 415.5 -183.5t147.5 -533.5t-147.5 -533.5t-415.5 -183.5h-246q-20 0 -20 20zM293 164h94q197 0 290 135t93 417.5t-93 418t-290 135.5h-94v-1106z" />
    <glyph glyph-name="E" unicode="E" 
d="M143 20v1393q0 20 21 21h715q20 0 20 -21v-123q0 -20 -20 -20h-564v-434h500q20 0 21 -21v-123q0 -20 -21 -20h-500v-508h578q20 0 20 -21v-123q0 -20 -20 -20h-729q-21 0 -21 20z" />
    <glyph glyph-name="F" unicode="F" 
d="M143 20v1393q0 20 21 21h737q20 0 21 -21v-123q0 -20 -21 -20h-586v-465h523q20 0 20 -21v-122q0 -20 -20 -21h-523v-621q0 -20 -20 -20h-131q-21 0 -21 20z" />
    <glyph glyph-name="G" unicode="G" 
d="M68 717q0 358 132 547.5t345 189.5q174 0 288.5 -115.5t122.5 -302.5q0 -20 -22 -20h-127q-23 0 -25 20q-33 254 -237 254q-297 0 -297 -573.5t309 -573.5q176 0 242 195v192h-211q-20 0 -21 21v123q0 20 21 20h362q20 0 21 -20v-330q0 -35 -23 -84q-121 -281 -391 -280
q-217 0 -353 190.5t-136 546.5z" />
    <glyph glyph-name="H" unicode="H" 
d="M94 20v1393q0 20 21 21h131q20 0 20 -21v-584h492v584q0 20 20 21h131q20 0 21 -21v-1393q0 -20 -21 -20h-131q-20 0 -20 20v646h-492v-646q0 -20 -20 -20h-131q-21 0 -21 20z" />
    <glyph glyph-name="I" unicode="I" 
d="M145 20v123q0 20 21 21h260v1106h-240q-20 0 -20 20v123q0 20 20 21h652q20 0 20 -21v-123q0 -20 -20 -20h-240v-1106h260q20 0 21 -21v-123q0 -20 -21 -20h-692q-21 0 -21 20z" />
    <glyph glyph-name="J" unicode="J" 
d="M80 436q0 20 20 21h131q20 0 21 -21q0 -135 58.5 -214t164.5 -79q125 0 174 83t49 270v917q0 20 21 21h131q20 0 20 -21v-926q0 -508 -395 -507q-195 0 -295 126.5t-100 329.5z" />
    <glyph glyph-name="K" unicode="K" 
d="M156 20v1393q0 20 20 21h131q20 0 21 -21v-555l434 555q18 20 33 21h155q18 0 19 -13q0 -8 -6 -16l-340 -432l358 -944q2 -6 2 -13q0 -16 -16 -16h-142q-27 0 -37 31l-294 776l-166 -211v-576q0 -20 -21 -20h-131q-20 0 -20 20z" />
    <glyph glyph-name="L" unicode="L" 
d="M201 20v1393q0 20 20 21h131q20 0 21 -21v-1249h581q20 0 21 -21v-123q0 -20 -21 -20h-733q-20 0 -20 20z" />
    <glyph glyph-name="M" unicode="M" 
d="M96 20v1393q0 20 21 21h174q29 0 33 -17l188 -504l188 504q4 16 33 17h174q20 0 21 -21v-1393q0 -20 -21 -20h-131q-20 0 -20 20v1125l-162 -424q-4 -10 -27 -10h-110q-23 0 -27 10l-162 424v-1125q0 -20 -20 -20h-131q-21 0 -21 20z" />
    <glyph glyph-name="N" unicode="N" 
d="M102 20v1393q0 20 21 21h160q27 0 32 -17l435 -1069v1065q0 20 20 21h131q20 0 21 -21v-1393q0 -20 -21 -20h-160q-27 0 -32 16l-435 1069v-1065q0 -20 -20 -20h-131q-21 0 -21 20z" />
    <glyph glyph-name="O" unicode="O" 
d="M53 716.5q0 360.5 123 549t336 188.5t336 -188.5t123 -549t-123 -548.5t-336 -188t-336 188t-123 548.5zM233 716.5q0 -573.5 279 -573.5t279 573.5t-279 573.5t-279 -573.5z" />
    <glyph glyph-name="P" unicode="P" 
d="M152 20v1393q0 20 20 21h348q207 0 319.5 -108.5t112.5 -291t-112.5 -291t-319.5 -108.5h-196v-615q0 -20 -21 -20h-131q-20 0 -20 20zM324 799h219q229 0 229 235.5t-229 235.5h-219v-471z" />
    <glyph glyph-name="Q" unicode="Q" 
d="M53 716.5q0 360.5 123 549t336 188.5t336 -188.5t123 -548.5q0 -330 -105 -516l92 -88q8 -8 8.5 -14.5t-8.5 -14.5l-86 -90q-8 -8 -14 -8t-14 8l-80 76q-106 -90 -252 -90q-213 0 -336 188t-123 548.5zM233 716.5q0 -573.5 279 -573.5q78 0 133 43l-119 115q-8 8 -8 14.5
t8 14.5l86 90q8 8 14.5 8t14.5 -8l98 -96q51 139 52 393q0 573 -279 573t-279 -573.5z" />
    <glyph glyph-name="R" unicode="R" 
d="M127 20v1393q0 20 20 21h377q199 0 307.5 -101.5t108.5 -277.5q0 -131 -66.5 -225.5t-183.5 -135.5l291 -674q2 -4 2 -8q0 -12 -16 -12h-148q-16 0 -28 20l-285 656h-207v-656q0 -20 -20 -20h-132q-20 0 -20 20zM299 840h246q121 0 172 54t51 160.5t-51 161t-172 54.5
h-246v-430z" />
    <glyph glyph-name="S" unicode="S" 
d="M66 424q0 20 20 20h131q20 0 21 -20q0 -123 71.5 -202t200.5 -79q127 0 192.5 70t65.5 193q0 100 -67.5 156t-213.5 102q-193 59 -293 155t-100 250q0 180 114 282.5t281 102.5q197 0 305.5 -113.5t108.5 -285.5q0 -20 -20 -21h-131q-20 0 -21 21q0 100 -63.5 167.5
t-178.5 67.5q-106 0 -164.5 -55t-58.5 -154q0 -106 71 -161.5t228 -108.5q195 -66 285 -151t90 -240q0 -197 -122 -318.5t-308 -121.5q-199 0 -321.5 121.5t-122.5 322.5z" />
    <glyph glyph-name="T" unicode="T" 
d="M59 1290v123q0 20 21 21h864q20 0 21 -21v-123q0 -20 -21 -20h-346v-1250q0 -20 -20 -20h-132q-20 0 -20 20v1250h-346q-21 0 -21 20z" />
    <glyph glyph-name="U" unicode="U" 
d="M82 459v954q0 20 20 21h131q20 0 21 -21v-932q0 -172 62.5 -255t195.5 -83t195.5 83t62.5 255v932q0 20 21 21h131q20 0 20 -21v-954q0 -233 -121 -356t-309 -123t-309 123t-121 356z" />
    <glyph glyph-name="V" unicode="V" 
d="M31 1421q0 12 18 13h152q18 0 24 -21l287 -1212l287 1212q6 20 24 21h152q18 0 18 -13l-2 -8l-354 -1393q-6 -20 -23 -20h-204q-16 0 -23 20l-354 1393q-2 6 -2 8z" />
    <glyph glyph-name="W" unicode="W" 
d="M27 1413q0 20 16 21h131q25 0 25 -21l80 -1165l141 780q2 20 24 21h136q23 0 24 -21l141 -780l80 1165q0 20 25 21h131q16 0 16 -21l-116 -1393q-2 -20 -23 -20h-190q-16 0 -23 20l-133 730l-133 -730q-6 -20 -23 -20h-190q-20 0 -23 20z" />
    <glyph glyph-name="X" unicode="X" 
d="M20 12q0 4 3 8l399 752l-340 641q-2 4 -2 8q0 12 16 13h137q16 0 29 -21l250 -471l250 471q12 20 29 21h137q16 0 16 -13q0 -4 -2 -8l-340 -641l399 -752q2 -4 3 -8q0 -12 -15 -12h-139q-16 0 -29 20l-309 582l-309 -582q-12 -20 -29 -20h-139q-15 0 -15 12z" />
    <glyph glyph-name="Y" unicode="Y" 
d="M61 1423q0 10 13 11h162q16 0 22 -17l254 -565l254 565q6 16 22 17h162q12 0 13 -11q0 -4 -2 -10l-363 -751v-642q0 -20 -20 -20h-132q-20 0 -20 20v642l-363 751q-2 6 -2 10z" />
    <glyph glyph-name="Z" unicode="Z" 
d="M76 20v123q0 16 12 35l645 1092h-616q-20 0 -21 20v123q0 20 21 21h788q20 0 21 -21v-123q0 -16 -13 -35l-643 -1091h670q20 0 21 -21v-123q0 -20 -21 -20h-844q-20 0 -20 20z" />
    <glyph glyph-name="bracketleft" unicode="[" 
d="M287 -385v1798q0 20 20 21h467q20 0 21 -21v-123q0 -20 -21 -20h-315v-1512h315q20 0 21 -20v-123q0 -20 -21 -21h-467q-20 1 -20 21z" />
    <glyph glyph-name="backslash" unicode="\" 
d="M129 1423q0 10 14 11h133q20 0 29 -21l621 -1393q2 -6 2 -10q0 -10 -15 -10h-133q-20 0 -28 20l-621 1393q-2 6 -2 10z" />
    <glyph glyph-name="bracketright" unicode="]" 
d="M229 -262q0 20 21 20h315v1512h-315q-20 0 -21 20v123q0 20 21 21h467q20 0 20 -21v-1798q0 -20 -20 -21h-467q-20 0 -21 21v123z" />
    <glyph glyph-name="asciicircum" unicode="^" 
d="M117 862q0 4 2 8l293 543q10 20 26 21h152q16 0 26 -21l289 -543q2 -4 2 -8q0 -12 -14 -12h-148q-18 0 -28 20l-203 404l-207 -404q-10 -20 -28 -20h-148q-14 0 -14 12z" />
    <glyph glyph-name="underscore" unicode="_" 
d="M100 -20q0 20 21 20h782q20 0 21 -20v-119q0 -20 -21 -21h-782q-20 0 -21 21v119z" />
    <glyph glyph-name="grave" unicode="`" 
d="M328 1423q0 10 14 11h205q23 0 31 -21l116 -258q2 -4 2 -8q0 -12 -14 -12h-129q-20 0 -37 18l-184 260q-4 6 -4 10z" />
    <glyph glyph-name="a" unicode="a" 
d="M123 313q0 160 108.5 247t249.5 87q115 0 256 -43v76q0 217 -194 217q-162 0 -205 -143q-4 -18 -29 -19h-131q-14 0 -14 12.5t2 20.5q31 121 130 201t247 80q178 0 266 -98.5t88 -270.5v-483q0 -113 35 -177q2 -4 2 -10q0 -10 -16 -10h-160q-20 0 -21 20v93
q-63 -72 -128.5 -102.5t-162.5 -30.5q-137 0 -230 93t-93 240zM291 313q0 -82 54 -132t138 -50q125 0 189.5 92t64.5 230q-137 43 -235 43q-92 0 -151.5 -48.5t-59.5 -134.5z" />
    <glyph glyph-name="b" unicode="b" 
d="M139 20v1393q0 20 21 21h119q20 0 20 -21v-481q111 117 256 117q184 0 291.5 -142.5t107.5 -392.5t-107.5 -392t-291.5 -142q-145 0 -256 116v-76q0 -20 -20 -20h-119q-21 0 -21 20zM283 514q0 -178 66.5 -280.5t185 -102.5t185 102.5t66.5 280.5t-66.5 280.5t-185 102.5
t-185 -102.5t-66.5 -280.5z" />
    <glyph glyph-name="c" unicode="c" 
d="M102 514q0 238 116 386.5t321 148.5q170 0 270 -96.5t125 -245.5q2 -8 2 -20.5t-14 -12.5h-125q-25 0 -29 18q-45 205 -229 205q-133 0 -201 -102.5t-68 -280.5t68 -280.5t201 -102.5q184 0 229 205q4 18 29 18h125q14 0 14 -12t-2 -20q-25 -150 -125 -246t-270 -96
q-205 0 -321 148t-116 386z" />
    <glyph glyph-name="d" unicode="d" 
d="M90 514q0 250 107.5 392.5t291.5 142.5q145 0 256 -117v481q0 20 21 21h119q20 0 20 -21v-1393q0 -20 -20 -20h-119q-20 0 -21 20v76q-111 -117 -256 -116q-184 0 -291.5 142t-107.5 392zM258 514q0 -178 66.5 -280.5t185.5 -102.5t185.5 102.5t66.5 280.5t-66.5 280.5
t-185.5 102.5t-185.5 -102.5t-66.5 -280.5z" />
    <glyph glyph-name="e" unicode="e" 
d="M98 514q0 229 120 382t312 153q207 0 310.5 -152t103.5 -383v-29q0 -20 -20 -20h-654q6 -152 72 -243t188 -91q90 0 139.5 46t82.5 142q6 18 28 19h133q14 0 15 -14q0 -8 -4 -21q-55 -156 -144.5 -239.5t-249.5 -83.5q-203 0 -317.5 150.5t-114.5 383.5zM279 616h493
q-14 137 -76.5 209t-165.5 72q-208 0 -251 -281z" />
    <glyph glyph-name="f" unicode="f" 
d="M115 897v111q0 20 20 20h250v100q0 137 78 231.5t221 94.5q111 0 197 -51q16 -12 16 -35v-111q0 -18 -14 -18q-8 0 -15 4q-94 59 -172 60q-72 0 -111.5 -45.5t-39.5 -129.5v-100h362q20 0 21 -20v-111q0 -20 -21 -20h-362v-857q0 -20 -21 -20h-118q-20 0 -21 20v857h-250
q-20 0 -20 20z" />
    <glyph glyph-name="g" unicode="g" 
d="M70 315q0 76 43 139.5t114 100.5q-23 68 -22 143q0 158 94 254.5t244 96.5q113 0 192 -52l111 109q8 8 16 8q6 0 17 -10l77 -82q8 -8 8.5 -16.5t-10.5 -18.5l-108 -113q37 -76 37 -176q0 -158 -94.5 -253t-245.5 -95q-147 0 -238 86q-76 -49 -76 -133q0 -47 30 -80
t81 -33q35 0 116 19.5t138 19.5q176 0 275.5 -90t99.5 -243q0 -143 -110.5 -232.5t-303.5 -89.5q-197 0 -311.5 88t-114.5 234q0 109 64 188q-123 94 -123 231zM289 -86q0 -82 69.5 -135t196.5 -53q115 0 184.5 47t69.5 123q0 182 -250 182q-45 0 -114.5 -15.5t-104.5 -17.5
q-51 -51 -51 -131zM365 698q0 -94 51 -145t127 -51q78 0 129 51t51 145q0 96 -51 147.5t-129 51.5q-76 0 -127 -51.5t-51 -147.5z" />
    <glyph glyph-name="h" unicode="h" 
d="M164 20v1393q0 20 20 21h119q20 0 21 -21v-498q47 57 122.5 95.5t157.5 38.5q307 0 307 -324v-705q0 -20 -20 -20h-119q-20 0 -20 20v685q0 193 -179 192q-115 0 -182 -96t-67 -279v-502q0 -20 -21 -20h-119q-20 0 -20 20z" />
    <glyph glyph-name="i" unicode="i" 
d="M156 20v111q0 20 20 21h289v729h-236q-20 0 -20 20v107q0 20 20 20h375q20 0 21 -20v-856h288q20 0 21 -21v-111q0 -20 -21 -20h-737q-20 0 -20 20zM422 1237v176q0 20 20 21h176q20 0 21 -21v-176q0 -20 -21 -20h-176q-20 0 -20 20z" />
    <glyph glyph-name="j" unicode="j" 
d="M168 901v107q0 20 20 20h547q20 0 21 -20v-1114q0 -240 -62 -388q-6 -16 -14 -16l-10 2l-121 35q-12 4 -12 12q0 4 2 10q57 150 57 320v1012h-408q-20 0 -20 20zM547 1237v176q0 20 20 21h176q20 0 21 -21v-176q0 -20 -21 -20h-176q-20 0 -20 20z" />
    <glyph glyph-name="k" unicode="k" 
d="M168 20v1393q0 20 20 21h119q20 0 21 -21v-805l350 402q18 18 33 18h163q16 0 17 -14q0 -6 -8 -17l-297 -331l340 -635q4 -8 4 -15q0 -16 -19 -16h-135q-23 0 -33 18l-274 517l-141 -158v-357q0 -20 -21 -20h-119q-20 0 -20 20z" />
    <glyph glyph-name="l" unicode="l" 
d="M123 20v111q0 20 20 21h308v1130h-263q-20 0 -20 21v110q0 20 20 21h402q20 0 20 -21v-1261h308q20 0 20 -21v-111q0 -20 -20 -20h-775q-20 0 -20 20z" />
    <glyph glyph-name="m" unicode="m" 
d="M72 20v988q0 20 20 20h119q20 0 20 -20v-60q76 100 197 101q106 0 147 -97q84 96 203 97q197 0 197 -193v-836q0 -20 -21 -20h-118q-20 0 -21 20v771q0 106 -82 106q-129 0 -129 -227v-650q0 -20 -20 -20h-119q-20 0 -21 20v771q0 106 -82 106q-68 0 -99.5 -54.5
t-31.5 -172.5v-650q0 -20 -20 -20h-119q-20 0 -20 20z" />
    <glyph glyph-name="n" unicode="n" 
d="M158 20v988q0 20 20 20h119q20 0 20 -20v-95q115 135 269 136q145 0 224 -78t79 -223v-728q0 -20 -21 -20h-118q-20 0 -21 20v705q0 172 -182 172q-100 0 -165 -94t-65 -262v-521q0 -20 -20 -20h-119q-20 0 -20 20z" />
    <glyph glyph-name="o" unicode="o" 
d="M70 514q0 248 119.5 391.5t322.5 143.5t322.5 -143.5t119.5 -391.5t-119.5 -391t-322.5 -143t-322.5 143t-119.5 391zM238 514q0 -178 71.5 -280.5t202.5 -102.5t202.5 102.5t71.5 280.5t-71.5 280.5t-202.5 102.5t-202.5 -102.5t-71.5 -280.5z" />
    <glyph glyph-name="p" unicode="p" 
d="M127 -385v1393q0 20 20 20h119q20 0 21 -20v-76q111 117 256 117q184 0 291.5 -142.5t107.5 -392.5t-107.5 -392t-291.5 -142q-145 0 -256 116v-481q0 -20 -21 -21h-119q-20 1 -20 21zM270 514q0 -178 66.5 -280.5t185.5 -102.5t185.5 102.5t66.5 280.5t-66.5 280.5
t-185.5 102.5t-185.5 -102.5t-66.5 -280.5z" />
    <glyph glyph-name="q" unicode="q" 
d="M76 514q0 250 107.5 392.5t291.5 142.5q145 0 256 -117v76q0 20 21 20h118q20 0 21 -20v-1393q0 -20 -21 -21h-118q-20 0 -21 21v481q-111 -117 -256 -116q-184 0 -291.5 142t-107.5 392zM244 514q0 -178 66.5 -280.5t185 -102.5t185.5 102.5t67 280.5t-67 280.5
t-185.5 102.5t-185 -102.5t-66.5 -280.5z" />
    <glyph glyph-name="r" unicode="r" 
d="M182 20v988q0 20 21 20h119q20 0 20 -20v-101q109 141 303 142q104 0 177 -55.5t108 -141.5q4 -8 4 -14q0 -14 -12 -21l-119 -72q-6 -4 -15 -4q-10 0 -16 11q-39 78 -79 111.5t-109 33.5q-106 0 -174 -104.5t-68 -264.5v-508q0 -20 -20 -20h-119q-21 0 -21 20z" />
    <glyph glyph-name="s" unicode="s" 
d="M150 313q0 20 20 21h131q18 0 21 -21q12 -88 70.5 -135t154.5 -47q92 0 141 41t49 109q0 78 -52 113.5t-200 62.5q-313 55 -313 299q0 133 95 213t249 80q164 0 253 -79t105 -216q0 -20 -20 -21h-115q-14 0 -20 21q-37 143 -201 143q-86 0 -136 -36t-50 -101
q0 -70 55 -108t197 -64q166 -31 243.5 -91.5t77.5 -195.5q0 -145 -100 -233t-264 -88q-174 0 -282.5 96t-108.5 237z" />
    <glyph glyph-name="t" unicode="t" 
d="M61 897v111q0 20 21 20h207v332q0 20 20 20h119q20 0 21 -20v-332h350q20 0 20 -20v-111q0 -20 -20 -20h-350v-521q0 -225 157 -225q80 0 120 48t50 157q2 18 23 18h119h8q2 0 5 -2t4 -6t1 -10q0 -147 -86 -251.5t-244 -104.5q-152 0 -234.5 95t-82.5 279v523h-207
q-21 0 -21 20z" />
    <glyph glyph-name="u" unicode="u" 
d="M139 281v727q0 20 21 20h119q20 0 20 -20v-705q0 -172 182 -172q100 0 165 94t65 262v521q0 20 20 20h119q20 0 20 -20v-988q0 -20 -20 -20h-119q-20 0 -20 20v95q-115 -135 -269 -135q-145 0 -224 78t-79 223z" />
    <glyph glyph-name="v" unicode="v" 
d="M74 1010q0 18 18 18h139q23 0 29 -20l252 -787l252 787q6 20 29 20h139q18 0 18 -18q0 -8 -2 -15l-340 -975q-8 -20 -20 -20h-152q-12 0 -20 20l-340 975q-2 7 -2 15z" />
    <glyph glyph-name="w" unicode="w" 
d="M29 1014q0 14 16 14h135q23 0 29 -20l86 -727l117 563q6 20 22 20h156q16 0 22 -20l117 -563l86 727q6 20 29 20h135q16 0 16 -14q0 -8 -2 -17l-157 -977q-4 -20 -27 -20h-143q-20 0 -27 20l-127 621l-127 -621q-6 -20 -27 -20h-143q-23 0 -27 20l-157 977q-2 9 -2 17z
" />
    <glyph glyph-name="x" unicode="x" 
d="M106 10q0 6 7 17l313 512l-281 462q-4 8 -4 13q0 14 15 14h129q18 0 28 -14l199 -332l199 332q10 14 28 14h129q14 0 15 -14q0 -4 -4 -13l-281 -462l313 -512q6 -10 7 -17q0 -10 -13 -10h-137q-16 0 -29 20l-227 375l-227 -375q-12 -20 -29 -20h-137q-13 0 -13 10z" />
    <glyph glyph-name="y" unicode="y" 
d="M111 -250q0 20 16 21q4 0 55 -22.5t99 -22.5q70 0 107.5 55t82.5 215l4 14l-358 985q-4 12 -4 17q0 16 16 16h147q20 0 27 -20l254 -758l213 758q8 20 29 20h141q16 0 16 -14q0 -2 -4 -15l-358 -1140q-47 -154 -116.5 -219.5t-184.5 -65.5q-90 0 -162 33q-20 12 -20 33
v110z" />
    <glyph glyph-name="z" unicode="z" 
d="M150 20v111q0 14 12 31l493 715h-446q-20 0 -21 20v111q0 20 21 20h610q20 0 21 -20v-111q0 -20 -17 -43l-483 -702h522q20 0 21 -21v-111q0 -20 -21 -20h-692q-20 0 -20 20z" />
    <glyph glyph-name="braceleft" unicode="{" 
d="M164 453v122q0 20 20 21h74q109 0 109 119v319q0 209 75.5 304.5t233.5 95.5h98q20 0 21 -21v-123q0 -20 -21 -20h-98q-88 0 -112.5 -48t-24.5 -188v-352q0 -137 -117 -168q117 -31 117 -168v-352q0 -139 24.5 -187.5t112.5 -48.5h98q20 0 21 -20v-123q0 -20 -21 -21h-98
q-158 0 -233.5 95.5t-75.5 304.5v319q0 119 -109 119h-74q-20 1 -20 21z" />
    <glyph glyph-name="bar" unicode="|" 
d="M426 -184v1802q0 20 20 20h132q20 0 20 -20v-1802q0 -20 -20 -21h-132q-20 1 -20 21z" />
    <glyph glyph-name="braceright" unicode="}" 
d="M229 -262q0 20 21 20h98q88 0 112.5 48.5t24.5 187.5v352q0 137 117 168q-117 31 -117 168v352q0 139 -24.5 187.5t-112.5 48.5h-98q-20 0 -21 20v123q0 20 21 21h98q158 0 233.5 -95.5t75.5 -304.5v-319q0 -119 109 -119h74q20 0 20 -21v-122q0 -20 -20 -21h-74
q-109 0 -109 -119v-319q0 -209 -75.5 -304.5t-233.5 -95.5h-98q-20 0 -21 21v123z" />
    <glyph glyph-name="asciitilde" unicode="~" 
d="M123 719q0 14 18 26q100 74 221 74q84 0 164 -42t131 -42q76 0 146 51q8 4 14 5q10 0 21 -17l61 -102q2 -4 2 -8q0 -14 -18 -27q-100 -74 -221 -74q-84 0 -164 42t-131 42q-76 0 -146 -51q-8 -4 -14 -4q-10 0 -21 16l-61 103q-2 4 -2 8z" />
    <glyph glyph-name="uni00A0" unicode="&#xa0;" 
 />
    <glyph glyph-name="exclamdown" unicode="&#xa1;" 
d="M391 807v201q0 20 21 20h200q20 0 21 -20v-201q0 -20 -21 -21h-200q-21 1 -21 21zM426 -385v1014q0 20 20 20h132q20 0 20 -20v-1014q0 -20 -20 -21h-132q-20 1 -20 21z" />
    <glyph glyph-name="cent" unicode="&#xa2;" 
d="M96 717q0 211 91.5 354t254.5 174v168q0 20 21 21h131q20 0 20 -21v-168q133 -23 213 -115t101 -221q2 -8 2 -20t-15 -12h-124q-25 0 -29 18q-37 158 -148 195v-746q111 37 148 195q4 18 29 18h124q14 0 14.5 -12.5t-1.5 -20.5q-20 -129 -100 -221t-214 -115v-168
q0 -20 -20 -20h-131q-20 0 -21 20v168q-164 31 -255 174.5t-91 354.5zM264 717q0 -311 178 -373v746q-178 -62 -178 -373z" />
    <glyph glyph-name="sterling" unicode="&#xa3;" 
d="M100 657v119q0 20 21 21h104q-59 141 -59 250q0 182 108.5 294.5t278.5 112.5q188 0 294.5 -110.5t106.5 -274.5q0 -20 -20 -20h-131q-18 0 -21 20q-25 221 -229 221q-98 0 -156.5 -60.5t-58.5 -176.5q0 -113 59 -256h400q20 0 20 -21v-119q0 -20 -20 -20h-355
q4 -41 4 -68q0 -195 -145 -405h643q20 0 21 -21v-123q0 -20 -21 -20h-803q-20 0 -20 20v144q0 18 16 41q76 98 106.5 173t30.5 202q0 20 -4 57h-149q-21 0 -21 20z" />
    <glyph glyph-name="currency" unicode="&#xa4;" 
d="M113 274.5q0 6.5 8 14.5l94 92q-63 102 -63 233t63 234l-94 92q-8 8 -8 14.5t8 14.5l78 78q8 8 14 8t14 -8l92 -91q84 55 193 55.5t193 -55.5l92 91q8 8 14 8t14 -8l78 -78q8 -8 8 -14.5t-8 -14.5l-94 -92q63 -102 63 -233.5t-63 -233.5l94 -92q8 -8 8 -14.5t-8 -14.5
l-78 -78q-8 -8 -14 -8t-14 8l-92 90q-84 -55 -193 -55t-193 55l-92 -90q-8 -8 -14 -8t-14 8l-78 78q-8 8 -8 14.5zM303 614.5q0 -120.5 57.5 -189.5t151.5 -69t151.5 69t57.5 189.5t-57.5 189t-151.5 68.5t-151.5 -68.5t-57.5 -189z" />
    <glyph glyph-name="yen" unicode="&#xa5;" 
d="M39 1421q0 12 12 13h162q14 0 23 -17l276 -571l276 571q8 16 23 17h162q12 0 12 -13q0 -4 -2 -8l-303 -592h211q20 0 20 -20v-119q0 -20 -20 -20h-293v-175h231q20 0 21 -20v-119q0 -20 -21 -20h-231v-308q0 -20 -20 -20h-132q-20 0 -20 20v308h-231q-20 0 -21 20v119
q0 20 21 20h231v175h-293q-20 0 -20 20v119q0 20 20 20h211l-303 592q-2 4 -2 8z" />
    <glyph glyph-name="brokenbar" unicode="&#xa6;" 
d="M426 -184v757q0 20 20 21h132q20 0 20 -21v-757q0 -20 -20 -21h-132q-20 1 -20 21zM426 860v758q0 20 20 20h132q20 0 20 -20v-758q0 -20 -20 -20h-132q-20 0 -20 20z" />
    <glyph glyph-name="section" unicode="&#xa7;" 
d="M104 -82q0 20 21 21h131q18 0 20 -21q8 -82 60.5 -131t146.5 -49q80 0 134.5 51t54.5 127q0 92 -47 153.5t-176 135.5q-203 115 -271.5 184.5t-68.5 175.5q0 135 145 240q-131 121 -131 307q0 152 107.5 247t252.5 95q184 0 281.5 -101.5t97.5 -242.5q0 -20 -20 -20h-131
q-18 0 -21 20q-8 82 -60 131t-147 49q-80 0 -134 -51t-54 -127q0 -92 47 -153.5t176 -135.5q203 -115 271.5 -184.5t68.5 -175.5q0 -135 -145 -240q131 -121 131 -307q0 -152 -107.5 -247t-253.5 -95q-184 0 -281.5 101.5t-97.5 242.5zM281 584q0 -66 50 -111t240 -151
l13 -9q102 51 102 131q0 66 -50 111t-241 152l-12 8q-102 -51 -102 -131z" />
    <glyph glyph-name="dieresis" unicode="&#xa8;" 
d="M240 1241v172q0 20 20 21h172q20 0 21 -21v-172q0 -20 -21 -20h-172q-20 0 -20 20zM571 1241v172q0 20 21 21h172q20 0 20 -21v-172q0 -20 -20 -20h-172q-21 0 -21 20z" />
    <glyph glyph-name="copyright" unicode="&#xa9;" 
d="M6 700.5q0 241.5 152.5 385t353.5 143.5t353.5 -143.5t152.5 -385t-152.5 -385t-353.5 -143.5t-353.5 143.5t-152.5 385zM102 700.5q0 -206.5 122 -322.5t288 -116t288 116t122 322.5t-122 322.5t-288 116t-288 -116t-122 -322.5zM254 700q0 147 77 229.5t181 82.5
q94 0 157.5 -52.5t75.5 -146.5q0 -14 -14 -14h-49q-16 0 -18 14q-29 121 -152 121q-76 0 -124 -60.5t-48 -173t49 -172t123 -59.5q123 0 152 121q2 14 18 14h49q14 0 14 -14q-12 -94 -75.5 -146.5t-157.5 -52.5q-104 0 -181 82t-77 227z" />
    <glyph glyph-name="ordfeminine" unicode="&#xaa;" 
d="M199 1050.5q0 182.5 85 291t214 108.5q133 0 209 -102v71q0 14 16 15h88q14 0 14 -15v-737q0 -14 -14 -14h-88q-16 0 -16 14v72q-76 -102 -209 -103q-129 0 -214 108.5t-85 291zM324 1051q0 -125 51 -205t145 -80t146.5 77t52.5 208t-52.5 207.5t-146.5 76.5t-145 -79.5
t-51 -204.5z" />
    <glyph glyph-name="guillemotleft" unicode="&#xab;" 
d="M94 504v114q0 16 21 37l401 387q6 6 12 7q12 0 13 -15v-172q0 -18 -15 -33l-268 -268l268 -268q14 -14 15 -33v-172q0 -14 -13 -14q-6 0 -12 6l-401 387q-21 21 -21 37zM449 504v114q0 16 20 37l401 387q6 6 13 7q12 0 12 -15v-172q0 -18 -14 -33l-269 -268l269 -268
q14 -14 14 -33v-172q0 -14 -12 -14q-6 0 -13 6l-401 387q-20 21 -20 37z" />
    <glyph glyph-name="logicalnot" unicode="&#xac;" 
d="M115 594v106q0 20 20 21h737q20 0 21 -21v-378q0 -20 -21 -21h-118q-20 0 -21 21v251h-598q-20 1 -20 21z" />
    <glyph glyph-name="uni00AD" unicode="&#xad;" 
d="M147 641v119q0 20 21 20h688q20 0 21 -20v-119q0 -20 -21 -20h-688q-21 0 -21 20z" />
    <glyph glyph-name="registered" unicode="&#xae;" 
d="M6 700.5q0 241.5 152.5 385t353.5 143.5t353.5 -143.5t152.5 -385t-152.5 -385t-353.5 -143.5t-353.5 143.5t-152.5 385zM102 700.5q0 -206.5 122 -322.5t288 -116t288 116t122 322.5t-122 322.5t-288 116t-288 -116t-122 -322.5zM338 412v579q0 14 14 15h180
q92 0 142.5 -44t50.5 -124q0 -123 -123 -162l131 -264q2 -4 2 -9q0 -6 -8 -6h-63q-14 0 -21 13l-129 258h-94v-256q0 -14 -14 -15h-54q-14 1 -14 15zM420 745h121q102 0 102 93q0 90 -102 90h-121v-183z" />
    <glyph glyph-name="macron" unicode="&#xaf;" 
d="M301 1241v102q0 20 21 21h380q20 0 21 -21v-102q0 -20 -21 -20h-380q-21 0 -21 20z" />
    <glyph glyph-name="degree" unicode="&#xb0;" 
d="M182 1105.5q0 151.5 92.5 250t237.5 98.5t237.5 -98.5t92.5 -250t-92.5 -249.5t-237.5 -98t-237.5 98t-92.5 249.5zM326 1106q0 -98 51 -159.5t135 -61.5t135 61.5t51 159.5t-51 159.5t-135 61.5t-135 -61.5t-51 -159.5z" />
    <glyph glyph-name="plusminus" unicode="&#xb1;" 
d="M131 20v119q0 20 21 21h720q20 0 21 -21v-119q0 -20 -21 -20h-720q-21 0 -21 20zM131 674v119q0 20 21 20h280v281q0 20 21 20h118q20 0 21 -20v-281h280q20 0 21 -20v-119q0 -20 -21 -21h-280v-280q0 -20 -21 -21h-118q-20 0 -21 21v280h-280q-21 1 -21 21z" />
    <glyph glyph-name="twosuperior" unicode="&#xb2;" 
d="M229 688v62q0 18 13 28l262 283q82 88 82 162q0 51 -29 81.5t-80 30.5q-106 0 -123 -112q-2 -20 -20 -21h-80q-20 0 -21 21q8 98 73 160.5t171 62.5q109 0 168.5 -63.5t59.5 -163.5q0 -106 -115 -232l-191 -209h310q20 0 20 -20v-70q0 -20 -20 -20h-459q-21 0 -21 20z
" />
    <glyph glyph-name="threesuperior" unicode="&#xb3;" 
d="M252 887q0 20 20 20h74q18 0 21 -20q25 -121 133 -121q121 0 121 125q0 55 -35 89t-97 34h-43q-20 0 -20 20v70q0 20 20 20h21q127 0 127 123q0 96 -100 96q-88 0 -103 -98q-2 -16 -20 -16h-72q-20 0 -20 18q10 86 67 142.5t148 56.5q102 0 158.5 -56.5t56.5 -134.5
q0 -117 -84 -172q115 -49 114 -192q0 -102 -66.5 -169t-170.5 -67q-106 0 -177 67t-73 165z" />
    <glyph glyph-name="acute" unicode="&#xb4;" 
d="M328 1147q0 4 2 8l116 258q8 20 31 21h205q14 0 14 -11q0 -4 -4 -10l-184 -260q-16 -18 -37 -18h-129q-14 0 -14 12z" />
    <glyph glyph-name="mu" unicode="&#xb5;" 
d="M139 -385v1393q0 20 21 20h119q20 0 20 -20v-705q0 -172 182 -172q100 0 165 94t65 262v521q0 20 20 20h119q20 0 20 -20v-988q0 -20 -20 -20h-119q-20 0 -20 20v95q-115 -135 -269 -135q-74 0 -143 24v-389q0 -20 -20 -21h-119q-21 1 -21 21z" />
    <glyph glyph-name="mu" unicode="&#x3bc;" 
d="M139 -385v1393q0 20 21 20h119q20 0 20 -20v-705q0 -172 182 -172q100 0 165 94t65 262v521q0 20 20 20h119q20 0 20 -20v-988q0 -20 -20 -20h-119q-20 0 -20 20v95q-115 -135 -269 -135q-74 0 -143 24v-389q0 -20 -20 -21h-119q-21 1 -21 21z" />
    <glyph glyph-name="paragraph" unicode="&#xb6;" 
d="M27 1118q0 145 92 230.5t256 85.5h588q20 0 20 -21v-123q0 -20 -20 -20h-82v-1454q0 -20 -21 -21h-131q-20 0 -20 21v1454h-121v-1454q0 -20 -21 -21h-131q-20 0 -20 21v989h-41q-164 0 -256 85t-92 228z" />
    <glyph glyph-name="periodcentered" unicode="&#xb7;" 
d="M387 612v209q0 20 21 21h208q20 0 21 -21v-209q0 -20 -21 -20h-208q-21 0 -21 20z" />
    <glyph glyph-name="cedilla" unicode="&#xb8;" 
d="M313 -326q0 20 21 21q12 0 61 -11.5t107 -11.5q74 0 73.5 63.5t-73.5 63.5q-59 0 -125 -14q-8 -2 -15 -2q-10 0 -16 6l-24 25q-4 4 -5 12q0 6 2 12l82 219q8 20 21 21h90q16 0 16 -12q0 -4 -2 -11l-88 -180q49 14 113 14q74 0 117 -39.5t43 -105.5q0 -170 -203 -170
q-88 0 -174 20q-20 6 -21 21v59z" />
    <glyph glyph-name="onesuperior" unicode="&#xb9;" 
d="M293 688v70q0 20 20 20h152v500l-125 -68q-12 -6 -21 -6q-16 0 -16 17v96q0 14 14 20l164 88q16 8 31 9h47q20 0 21 -21v-635h151q20 0 21 -20v-70q0 -20 -21 -20h-418q-20 0 -20 20z" />
    <glyph glyph-name="ordmasculine" unicode="&#xba;" 
d="M174 1051q0 172 92 285.5t246 113.5t246 -113.5t92 -285.5t-92 -286t-246 -114t-246 114t-92 286zM299 1051q0 -125 57.5 -205t155.5 -80t155.5 80t57.5 205t-57.5 204.5t-155.5 79.5t-155.5 -79.5t-57.5 -204.5z" />
    <glyph glyph-name="guillemotright" unicode="&#xbb;" 
d="M129 88v172q0 18 14 33l269 268l-269 268q-14 14 -14 33v172q0 14 12 15q6 0 13 -7l401 -387q20 -20 20 -37v-114q0 -16 -20 -37l-401 -387q-6 -6 -13 -6q-12 0 -12 14zM483 88v172q0 18 15 33l268 268l-268 268q-14 14 -15 33v172q0 14 13 15q6 0 12 -7l401 -387
q20 -20 21 -37v-114q0 -16 -21 -37l-401 -387q-6 -6 -12 -6q-13 0 -13 14z" />
    <glyph glyph-name="onequarter" unicode="&#xbc;" 
d="M109 688v70q0 20 20 20h152v500l-125 -68q-12 -6 -21 -6q-16 0 -16 17v96q0 14 14 20l164 88q16 8 31 9h47q20 0 20 -21v-635h152q20 0 20 -20v-70q0 -20 -20 -20h-418q-20 0 -20 20zM207 225q0 6 8 15l682 540q8 6 14.5 6t14.5 -10l45 -57q6 -10 6 -14q0 -6 -8 -15
l-682 -540q-8 -6 -14.5 -6.5t-14.5 10.5l-45 57q-6 10 -6 14zM410 -182q0 12 8 24l299 504q8 14 22 14h68q20 0 20 -20v-490h66q20 0 20 -20v-70q0 -20 -20 -20h-66v-125q0 -20 -20 -21h-74q-20 0 -20 21v125h-283q-20 0 -20 20v58zM547 -150h166v289z" />
    <glyph glyph-name="onehalf" unicode="&#xbd;" 
d="M109 688v70q0 20 20 20h152v500l-125 -68q-12 -6 -21 -6q-16 0 -16 17v96q0 14 14 20l164 88q16 8 31 9h47q20 0 20 -21v-635h152q20 0 20 -20v-70q0 -20 -20 -20h-418q-20 0 -20 20zM131 225q0 6 8 15l682 540q10 6 15 6q6 0 14 -10l45 -57q6 -10 6 -14q0 -6 -8 -15
l-682 -540q-10 -6 -14 -7q-6 0 -15 11l-45 57q-6 10 -6 14zM455 -324q0 18 12 29l262 283q82 88 82 162q0 51 -28.5 81.5t-80.5 30.5q-106 0 -122 -112q-2 -20 -21 -21h-80q-20 0 -20 21q8 98 72.5 160.5t170.5 62.5q109 0 168.5 -63.5t59.5 -164.5q0 -106 -115 -231
l-190 -209h309q20 0 20 -20v-70q0 -20 -20 -21h-459q-20 0 -20 21v61z" />
    <glyph glyph-name="threequarters" unicode="&#xbe;" 
d="M109 887q0 20 20 20h74q18 0 20 -20q25 -121 133 -121q121 0 121 125q0 55 -34.5 89t-96.5 34h-43q-20 0 -20 20v70q0 20 20 20h21q127 0 127 123q0 96 -101 96q-88 0 -102 -98q-2 -16 -21 -16h-71q-20 0 -21 18q10 86 67.5 142.5t147.5 56.5q102 0 158.5 -56.5
t56.5 -134.5q0 -117 -84 -172q115 -49 115 -192q0 -102 -66.5 -169t-171.5 -67q-106 0 -176.5 67t-72.5 165zM127 225q0 6 8 15l682 540q10 6 14 6q6 0 15 -10l45 -57q6 -10 6 -14q0 -6 -8 -15l-682 -540q-10 -6 -14 -7q-6 0 -15 11l-45 57q-6 10 -6 14zM410 -182q0 12 8 24
l299 504q8 14 22 14h68q20 0 20 -20v-490h66q20 0 20 -20v-70q0 -20 -20 -20h-66v-125q0 -20 -20 -21h-74q-20 0 -20 21v125h-283q-20 0 -20 20v58zM547 -150h166v289z" />
    <glyph glyph-name="questiondown" unicode="&#xbf;" 
d="M135 -61q0 80 31 146.5t75 112.5l88 91q44 45 74.5 104.5t30.5 126.5v109q0 20 21 20h131q20 0 20 -20v-94q0 -106 -47 -192.5t-102.5 -134.5t-102.5 -119t-47 -150q0 -96 54.5 -148.5t154.5 -52.5q90 0 148.5 60.5t68.5 160.5q2 20 21 21h127q20 0 20 -21
q-10 -164 -112.5 -274.5t-272.5 -110.5q-182 0 -281.5 99.5t-99.5 265.5zM399 807v201q0 20 21 20h201q20 0 20 -20v-201q0 -20 -20 -21h-201q-21 1 -21 21z" />
    <glyph glyph-name="Agrave" unicode="&#xc0;" 
d="M27 20q0 6 2 13l379 1380q6 20 20 21h168q14 0 20 -21l379 -1380q2 -6 2 -13q0 -20 -22 -20h-139q-18 0 -25 20l-94 375h-410l-94 -375q-6 -20 -25 -20h-139q-22 0 -22 20zM236 1829q0 10 14 10h205q23 0 30 -20l117 -258q2 -4 2 -9q0 -12 -14 -12h-129q-23 0 -37 19
l-184 260q-4 6 -4 10zM348 559h328l-164 653z" />
    <glyph glyph-name="Aacute" unicode="&#xc1;" 
d="M27 20q0 6 2 13l379 1380q6 20 20 21h168q14 0 20 -21l379 -1380q2 -6 2 -13q0 -20 -22 -20h-139q-18 0 -25 20l-94 375h-410l-94 -375q-6 -20 -25 -20h-139q-22 0 -22 20zM348 559h328l-164 653zM416 1552q0 4 2 9l117 258q8 20 30 20h205q14 0 14 -10q0 -4 -4 -10
l-184 -260q-14 -18 -37 -19h-129q-14 0 -14 12z" />
    <glyph glyph-name="Acircumflex" unicode="&#xc2;" 
d="M27 20q0 6 2 13l379 1380q6 20 20 21h168q14 0 20 -21l379 -1380q2 -6 2 -13q0 -20 -22 -20h-139q-18 0 -25 20l-94 375h-410l-94 -375q-6 -20 -25 -20h-139q-22 0 -22 20zM229 1550q0 4 4 11l191 262q14 16 31 16h114q16 0 31 -16l191 -262q4 -6 4 -11q0 -10 -15 -10
h-127q-23 0 -37 19l-104 120l-104 -120q-14 -18 -37 -19h-127q-15 0 -15 10zM348 559h328l-164 653z" />
    <glyph glyph-name="Atilde" unicode="&#xc3;" 
d="M27 20q0 6 2 13l379 1380q6 20 20 21h168q14 0 20 -21l379 -1380q2 -6 2 -13q0 -20 -22 -20h-139q-18 0 -25 20l-94 375h-410l-94 -375q-6 -20 -25 -20h-139q-22 0 -22 20zM193 1739q0 14 18 26q100 74 184 74q70 0 128.5 -42t99.5 -42q47 0 114 51q8 4 15 4q10 0 20 -16
l57 -86q2 -4 2 -8q0 -14 -18 -27q-100 -74 -184 -74q-70 0 -128.5 42t-99.5 42q-47 0 -114 -51q-8 -4 -15 -4q-10 0 -20 17l-57 86q-2 4 -2 8zM348 559h328l-164 653z" />
    <glyph glyph-name="Adieresis" unicode="&#xc4;" 
d="M27 20q0 6 2 13l379 1380q6 20 20 21h168q14 0 20 -21l379 -1380q2 -6 2 -13q0 -20 -22 -20h-139q-18 0 -25 20l-94 375h-410l-94 -375q-6 -20 -25 -20h-139q-22 0 -22 20zM240 1647v172q0 20 20 20h172q20 0 21 -20v-172q0 -20 -21 -21h-172q-20 1 -20 21zM348 559h328
l-164 653zM571 1647v172q0 20 21 20h172q20 0 20 -20v-172q0 -20 -20 -21h-172q-21 1 -21 21z" />
    <glyph glyph-name="Aring" unicode="&#xc5;" 
d="M27 20q0 6 2 13l379 1380q6 20 20 21h168q14 0 20 -21l379 -1380q2 -6 2 -13q0 -20 -22 -20h-139q-18 0 -25 20l-94 375h-410l-94 -375q-6 -20 -25 -20h-139q-22 0 -22 20zM334 1708q0 76 50 124t128 48t128 -48t50 -124t-50 -124t-128 -48t-128 48t-50 124zM348 559h328
l-164 653zM432 1708q0 -37 22.5 -59.5t57.5 -22.5t57.5 22.5t22.5 59.5t-22.5 59.5t-57.5 22.5t-57.5 -22.5t-22.5 -59.5z" />
    <glyph glyph-name="AE" unicode="&#xc6;" 
d="M-12 20q0 6 2 13l286 1380q6 20 21 21h655q20 0 21 -21v-123q0 -20 -21 -20h-344v-434h303q20 0 21 -21v-123q0 -20 -21 -20h-303v-508h359q20 0 20 -21v-123q0 -20 -20 -20h-510q-20 0 -21 20v375h-200l-70 -375q-6 -20 -25 -20h-131q-22 0 -22 20zM266 559h170v711h-35
z" />
    <glyph glyph-name="Ccedilla" unicode="&#xc7;" 
d="M74 717q0 362 130 549.5t341 187.5q193 0 311.5 -132t124.5 -329q0 -20 -23 -20h-124q-25 0 -25 20q-6 133 -75.5 215t-188.5 82q-139 0 -215 -143t-76 -430t76 -430.5t215 -143.5q119 0 188.5 82t75.5 215q0 20 25 21h124q23 0 23 -21q-6 -188 -114.5 -317t-286.5 -141
l-52 -107q49 14 113 14q74 0 117 -39.5t43 -105.5q0 -170 -203 -170q-88 0 -174 20q-20 6 -21 21v59q0 20 21 21q12 0 61.5 -11.5t106.5 -11.5q74 0 74 63.5t-74 63.5q-59 0 -125 -14q-8 -2 -14 -2q-10 0 -17 6l-24 25q-4 4 -4 12q0 6 2 12l55 150q-178 33 -284.5 218
t-106.5 511z" />
    <glyph glyph-name="Egrave" unicode="&#xc8;" 
d="M143 20v1393q0 20 21 21h715q20 0 20 -21v-123q0 -20 -20 -20h-564v-434h500q20 0 21 -21v-123q0 -20 -21 -20h-500v-508h578q20 0 20 -21v-123q0 -20 -20 -20h-729q-21 0 -21 20zM283 1829q0 10 14 10h205q23 0 30 -20l117 -258q2 -4 2 -9q0 -12 -14 -12h-129
q-20 0 -37 19l-184 260q-4 6 -4 10z" />
    <glyph glyph-name="Eacute" unicode="&#xc9;" 
d="M143 20v1393q0 20 21 21h715q20 0 20 -21v-123q0 -20 -20 -20h-564v-434h500q20 0 21 -21v-123q0 -20 -21 -20h-500v-508h578q20 0 20 -21v-123q0 -20 -20 -20h-729q-21 0 -21 20zM389 1552q0 4 2 9l117 258q8 20 31 20h204q14 0 15 -10q0 -4 -4 -10l-185 -260
q-16 -18 -37 -19h-129q-14 0 -14 12z" />
    <glyph glyph-name="Ecircumflex" unicode="&#xca;" 
d="M143 20v1393q0 20 21 21h715q20 0 20 -21v-123q0 -20 -20 -20h-564v-434h500q20 0 21 -21v-123q0 -20 -21 -20h-500v-508h578q20 0 20 -21v-123q0 -20 -20 -20h-729q-21 0 -21 20zM240 1550q0 4 4 11l190 262q14 16 31 16h115q16 0 30 -16l191 -262q4 -6 4 -11
q0 -10 -14 -10h-127q-20 0 -37 19l-105 120l-104 -120q-16 -18 -37 -19h-127q-14 0 -14 10z" />
    <glyph glyph-name="Edieresis" unicode="&#xcb;" 
d="M143 20v1393q0 20 21 21h715q20 0 20 -21v-123q0 -20 -20 -20h-564v-434h500q20 0 21 -21v-123q0 -20 -21 -20h-500v-508h578q20 0 20 -21v-123q0 -20 -20 -20h-729q-21 0 -21 20zM244 1647v172q0 20 20 20h172q20 0 21 -20v-172q0 -20 -21 -21h-172q-20 1 -20 21z
M575 1647v172q0 20 21 20h172q20 0 20 -20v-172q0 -20 -20 -21h-172q-21 1 -21 21z" />
    <glyph glyph-name="Igrave" unicode="&#xcc;" 
d="M145 20v123q0 20 21 21h260v1106h-240q-20 0 -20 20v123q0 20 20 21h652q20 0 20 -21v-123q0 -20 -20 -20h-240v-1106h260q20 0 21 -21v-123q0 -20 -21 -20h-692q-21 0 -21 20zM262 1829q0 10 14 10h205q23 0 31 -20l117 -258q2 -4 2 -9q0 -12 -15 -12h-129q-20 0 -36 19
l-185 260q-4 6 -4 10z" />
    <glyph glyph-name="Iacute" unicode="&#xcd;" 
d="M145 20v123q0 20 21 21h260v1106h-240q-20 0 -20 20v123q0 20 20 21h652q20 0 20 -21v-123q0 -20 -20 -20h-240v-1106h260q20 0 21 -21v-123q0 -20 -21 -20h-692q-21 0 -21 20zM393 1552q0 4 2 9l117 258q8 20 31 20h205q14 0 14 -10q0 -4 -4 -10l-185 -260
q-16 -18 -36 -19h-129q-15 0 -15 12z" />
    <glyph glyph-name="Icircumflex" unicode="&#xce;" 
d="M145 20v123q0 20 21 21h260v1106h-240q-20 0 -20 20v123q0 20 20 21h652q20 0 20 -21v-123q0 -20 -20 -20h-240v-1106h260q20 0 21 -21v-123q0 -20 -21 -20h-692q-21 0 -21 20zM229 1550q0 4 4 11l191 262q14 16 31 16h114q16 0 31 -16l191 -262q4 -6 4 -11
q0 -10 -15 -10h-127q-23 0 -37 19l-104 120l-104 -120q-14 -18 -37 -19h-127q-15 0 -15 10z" />
    <glyph glyph-name="Idieresis" unicode="&#xcf;" 
d="M145 20v123q0 20 21 21h260v1106h-240q-20 0 -20 20v123q0 20 20 21h652q20 0 20 -21v-123q0 -20 -20 -20h-240v-1106h260q20 0 21 -21v-123q0 -20 -21 -20h-692q-21 0 -21 20zM240 1647v172q0 20 20 20h172q20 0 21 -20v-172q0 -20 -21 -21h-172q-20 1 -20 21zM571 1647
v172q0 20 21 20h172q20 0 20 -20v-172q0 -20 -20 -21h-172q-21 1 -21 21z" />
    <glyph glyph-name="Eth" unicode="&#xd0;" 
d="M29 657v119q0 20 20 21h101v616q0 20 20 21h246q268 0 415.5 -183.5t147.5 -533.5t-147.5 -533.5t-415.5 -183.5h-246q-20 0 -20 20v617h-101q-20 0 -20 20zM322 164h94q197 0 290 135t93 417.5t-93.5 418t-289.5 135.5h-94v-473h172q20 0 20 -21v-119q0 -20 -20 -20
h-172v-473z" />
    <glyph glyph-name="Ntilde" unicode="&#xd1;" 
d="M102 20v1393q0 20 21 21h160q27 0 32 -17l435 -1069v1065q0 20 20 21h131q20 0 21 -21v-1393q0 -20 -21 -20h-160q-27 0 -32 16l-435 1069v-1065q0 -20 -20 -20h-131q-21 0 -21 20zM193 1739q0 14 18 26q100 74 184 74q70 0 128.5 -42t99.5 -42q47 0 114 51q8 4 15 4
q10 0 20 -16l57 -86q2 -4 2 -8q0 -14 -18 -27q-100 -74 -184 -74q-70 0 -128.5 42t-99.5 42q-47 0 -114 -51q-8 -4 -15 -4q-10 0 -20 17l-57 86q-2 4 -2 8z" />
    <glyph glyph-name="Ograve" unicode="&#xd2;" 
d="M53 716.5q0 360.5 123 549t336 188.5t336 -188.5t123 -549t-123 -548.5t-336 -188t-336 188t-123 548.5zM233 716.5q0 -573.5 279 -573.5t279 573.5t-279 573.5t-279 -573.5zM250 1829q0 10 14 10h205q23 0 31 -20l116 -258q2 -4 2 -9q0 -12 -14 -12h-129q-20 0 -37 19
l-184 260q-4 6 -4 10z" />
    <glyph glyph-name="Oacute" unicode="&#xd3;" 
d="M53 716.5q0 360.5 123 549t336 188.5t336 -188.5t123 -549t-123 -548.5t-336 -188t-336 188t-123 548.5zM233 716.5q0 -573.5 279 -573.5t279 573.5t-279 573.5t-279 -573.5zM391 1552q0 4 2 9l117 258q8 20 31 20h204q14 0 15 -10q0 -4 -4 -10l-185 -260
q-14 -18 -36 -19h-129q-15 0 -15 12z" />
    <glyph glyph-name="Ocircumflex" unicode="&#xd4;" 
d="M53 716.5q0 360.5 123 549t336 188.5t336 -188.5t123 -549t-123 -548.5t-336 -188t-336 188t-123 548.5zM229 1550q0 4 4 11l191 262q14 16 31 16h114q16 0 31 -16l191 -262q4 -6 4 -11q0 -10 -15 -10h-127q-23 0 -37 19l-104 120l-104 -120q-14 -18 -37 -19h-127
q-15 0 -15 10zM233 716.5q0 -573.5 279 -573.5t279 573.5t-279 573.5t-279 -573.5z" />
    <glyph glyph-name="Otilde" unicode="&#xd5;" 
d="M53 716.5q0 360.5 123 549t336 188.5t336 -188.5t123 -549t-123 -548.5t-336 -188t-336 188t-123 548.5zM193 1739q0 14 18 26q100 74 184 74q70 0 128.5 -42t99.5 -42q47 0 114 51q8 4 15 4q10 0 20 -16l57 -86q2 -4 2 -8q0 -14 -18 -27q-100 -74 -184 -74
q-70 0 -128.5 42t-99.5 42q-47 0 -114 -51q-8 -4 -15 -4q-10 0 -20 17l-57 86q-2 4 -2 8zM233 716.5q0 -573.5 279 -573.5t279 573.5t-279 573.5t-279 -573.5z" />
    <glyph glyph-name="Odieresis" unicode="&#xd6;" 
d="M53 716.5q0 360.5 123 549t336 188.5t336 -188.5t123 -549t-123 -548.5t-336 -188t-336 188t-123 548.5zM233 716.5q0 -573.5 279 -573.5t279 573.5t-279 573.5t-279 -573.5zM240 1647v172q0 20 20 20h172q20 0 21 -20v-172q0 -20 -21 -21h-172q-20 1 -20 21zM571 1647
v172q0 20 21 20h172q20 0 20 -20v-172q0 -20 -20 -21h-172q-21 1 -21 21z" />
    <glyph glyph-name="multiply" unicode="&#xd7;" 
d="M193 487.5q0 6.5 8 14.5l198 198l-198 199q-8 8 -8 14.5t8 14.5l84 84q8 8 14 8t14 -8l199 -199l199 199q8 8 14 8t14 -8l84 -84q8 -8 8 -14.5t-8 -14.5l-198 -199l198 -198q8 -8 8 -14.5t-8 -14.5l-84 -84q-8 -8 -14 -8t-14 8l-199 199l-199 -199q-8 -8 -14 -8t-14 8
l-84 84q-8 8 -8 14.5z" />
    <glyph glyph-name="Oslash" unicode="&#xd8;" 
d="M31 -8q0 4 4 12l117 203q-98 186 -99 510q0 360 123 548.5t336 188.5q180 0 293 -129l92 158q8 12 16 12q4 0 13 -4l55 -33q12 -8 12 -16q0 -4 -4 -12l-117 -203q98 -186 99 -510q0 -360 -123 -548.5t-336 -188.5q-180 0 -293 129l-92 -158q-8 -12 -16 -12q-4 0 -13 4
l-55 32q-12 9 -12 17zM233 717q0 -203 29 -320l451 770q-66 123 -201 123q-279 0 -279 -573zM311 266q66 -123 201 -123q279 0 279 574q0 203 -29 319z" />
    <glyph glyph-name="Ugrave" unicode="&#xd9;" 
d="M82 459v954q0 20 20 21h131q20 0 21 -21v-932q0 -172 62.5 -255t195.5 -83t195.5 83t62.5 255v932q0 20 21 21h131q20 0 20 -21v-954q0 -233 -121 -356t-309 -123t-309 123t-121 356zM252 1829q0 10 14 10h205q23 0 31 -20l116 -258q2 -4 3 -9q0 -12 -15 -12h-129
q-23 0 -37 19l-184 260q-4 6 -4 10z" />
    <glyph glyph-name="Uacute" unicode="&#xda;" 
d="M82 459v954q0 20 20 21h131q20 0 21 -21v-932q0 -172 62.5 -255t195.5 -83t195.5 83t62.5 255v932q0 20 21 21h131q20 0 20 -21v-954q0 -233 -121 -356t-309 -123t-309 123t-121 356zM399 1552q0 4 2 9l117 258q8 20 31 20h205q14 0 14 -10q0 -4 -4 -10l-184 -260
q-14 -18 -37 -19h-129q-15 0 -15 12z" />
    <glyph glyph-name="Ucircumflex" unicode="&#xdb;" 
d="M82 459v954q0 20 20 21h131q20 0 21 -21v-932q0 -172 62.5 -255t195.5 -83t195.5 83t62.5 255v932q0 20 21 21h131q20 0 20 -21v-954q0 -233 -121 -356t-309 -123t-309 123t-121 356zM229 1550q0 4 4 11l191 262q14 16 31 16h114q16 0 31 -16l191 -262q4 -6 4 -11
q0 -10 -15 -10h-127q-23 0 -37 19l-104 120l-104 -120q-14 -18 -37 -19h-127q-15 0 -15 10z" />
    <glyph glyph-name="Udieresis" unicode="&#xdc;" 
d="M82 459v954q0 20 20 21h131q20 0 21 -21v-932q0 -172 62.5 -255t195.5 -83t195.5 83t62.5 255v932q0 20 21 21h131q20 0 20 -21v-954q0 -233 -121 -356t-309 -123t-309 123t-121 356zM240 1647v172q0 20 20 20h172q20 0 21 -20v-172q0 -20 -21 -21h-172q-20 1 -20 21z
M571 1647v172q0 20 21 20h172q20 0 20 -20v-172q0 -20 -20 -21h-172q-21 1 -21 21z" />
    <glyph glyph-name="Yacute" unicode="&#xdd;" 
d="M61 1423q0 10 13 11h162q16 0 22 -17l254 -565l254 565q6 16 22 17h162q12 0 13 -11q0 -4 -2 -10l-363 -751v-642q0 -20 -20 -20h-132q-20 0 -20 20v642l-363 751q-2 6 -2 10zM383 1552q0 4 2 9l117 258q8 20 30 20h205q14 0 15 -10q0 -4 -4 -10l-185 -260
q-14 -18 -37 -19h-129q-14 0 -14 12z" />
    <glyph glyph-name="Thorn" unicode="&#xde;" 
d="M133 20v1393q0 20 21 21h131q20 0 20 -21v-297h197q207 0 319.5 -108.5t112.5 -290.5t-112.5 -291t-319.5 -109h-197v-297q0 -20 -20 -20h-131q-21 0 -21 20zM305 481h219q229 0 229.5 235.5t-229.5 235.5h-219v-471z" />
    <glyph glyph-name="germandbls" unicode="&#xdf;" 
d="M53 897v111q0 20 21 20h108v66q0 150 91.5 255t252.5 105q154 0 242 -81t88 -214q0 -78 -27.5 -139.5t-61.5 -93t-61.5 -69.5t-27.5 -73q0 -39 33.5 -75.5t83 -71.5t97.5 -77t82 -109.5t34 -153.5q0 -139 -86 -228t-222 -89q-123 0 -206.5 75.5t-94.5 192.5q0 20 21 20
h115q14 0 20 -20q31 -117 145 -117q139 0 140 160q0 61 -23.5 108t-59.5 76l-78 61l-78 59q-36 28 -59.5 74t-23.5 105.5t27.5 111.5t61.5 83.5t61.5 80t27.5 101.5q0 70 -45 111t-125 41q-82 0 -133 -56.5t-51 -161.5v-1065q0 -20 -20 -20h-119q-20 0 -21 20v857h-108
q-21 0 -21 20z" />
    <glyph glyph-name="agrave" unicode="&#xe0;" 
d="M123 313q0 160 108.5 247t249.5 87q115 0 256 -43v76q0 217 -194 217q-162 0 -205 -143q-4 -18 -29 -19h-131q-14 0 -14 12.5t2 20.5q31 121 130 201t247 80q178 0 266 -98.5t88 -270.5v-483q0 -113 35 -177q2 -4 2 -10q0 -10 -16 -10h-160q-20 0 -21 20v93
q-63 -72 -128.5 -102.5t-162.5 -30.5q-137 0 -230 93t-93 240zM279 1423q0 10 14 11h205q23 0 30 -21l117 -258q2 -4 2 -8q0 -12 -14 -12h-129q-20 0 -37 18l-184 260q-4 6 -4 10zM291 313q0 -82 54 -132t138 -50q125 0 189.5 92t64.5 230q-137 43 -235 43
q-92 0 -151.5 -48.5t-59.5 -134.5z" />
    <glyph glyph-name="aacute" unicode="&#xe1;" 
d="M123 313q0 160 108.5 247t249.5 87q115 0 256 -43v76q0 217 -194 217q-162 0 -205 -143q-4 -18 -29 -19h-131q-14 0 -14 12.5t2 20.5q31 121 130 201t247 80q178 0 266 -98.5t88 -270.5v-483q0 -113 35 -177q2 -4 2 -10q0 -10 -16 -10h-160q-20 0 -21 20v93
q-63 -72 -128.5 -102.5t-162.5 -30.5q-137 0 -230 93t-93 240zM291 313q0 -82 54 -132t138 -50q125 0 189.5 92t64.5 230q-137 43 -235 43q-92 0 -151.5 -48.5t-59.5 -134.5zM422 1147q0 4 2 8l117 258q8 20 30 21h205q14 0 15 -11q0 -4 -5 -10l-184 -260q-16 -18 -37 -18
h-129q-14 0 -14 12z" />
    <glyph glyph-name="acircumflex" unicode="&#xe2;" 
d="M123 313q0 160 108.5 247t249.5 87q115 0 256 -43v76q0 217 -194 217q-162 0 -205 -143q-4 -18 -29 -19h-131q-14 0 -14 12.5t2 20.5q31 121 130 201t247 80q178 0 266 -98.5t88 -270.5v-483q0 -113 35 -177q2 -4 2 -10q0 -10 -16 -10h-160q-20 0 -21 20v93
q-63 -72 -128.5 -102.5t-162.5 -30.5q-137 0 -230 93t-93 240zM262 1145q0 4 4 10l191 262q14 16 30 17h115q16 0 31 -17l190 -262q4 -6 4 -10q0 -10 -14 -10h-127q-23 0 -37 18l-104 121l-105 -121q-14 -18 -37 -18h-127q-14 0 -14 10zM291 313q0 -82 54 -132t138 -50
q125 0 189.5 92t64.5 230q-137 43 -235 43q-92 0 -151.5 -48.5t-59.5 -134.5z" />
    <glyph glyph-name="atilde" unicode="&#xe3;" 
d="M123 313q0 160 108.5 247t249.5 87q115 0 256 -43v76q0 217 -194 217q-162 0 -205 -143q-4 -18 -29 -19h-131q-14 0 -14 12.5t2 20.5q31 121 130 201t247 80q178 0 266 -98.5t88 -270.5v-483q0 -113 35 -177q2 -4 2 -10q0 -10 -16 -10h-160q-20 0 -21 20v93
q-63 -72 -128.5 -102.5t-162.5 -30.5q-137 0 -230 93t-93 240zM229 1333q0 14 19 27q100 74 184 74q70 0 128 -42t99 -42q47 0 115 51q8 4 14 4q10 0 21 -16l57 -86q2 -4 2 -9q0 -14 -18 -26q-100 -74 -184 -74q-70 0 -128.5 42t-99.5 42q-47 0 -114 -51q-8 -4 -15 -4
q-10 0 -20 16l-58 86q-2 4 -2 8zM291 313q0 -82 54 -132t138 -50q125 0 189.5 92t64.5 230q-137 43 -235 43q-92 0 -151.5 -48.5t-59.5 -134.5z" />
    <glyph glyph-name="adieresis" unicode="&#xe4;" 
d="M123 313q0 160 108.5 247t249.5 87q115 0 256 -43v76q0 217 -194 217q-162 0 -205 -143q-4 -18 -29 -19h-131q-14 0 -14 12.5t2 20.5q31 121 130 201t247 80q178 0 266 -98.5t88 -270.5v-483q0 -113 35 -177q2 -4 2 -10q0 -10 -16 -10h-160q-20 0 -21 20v93
q-63 -72 -128.5 -102.5t-162.5 -30.5q-137 0 -230 93t-93 240zM268 1241v172q0 20 21 21h172q20 0 20 -21v-172q0 -20 -20 -20h-172q-21 0 -21 20zM291 313q0 -82 54 -132t138 -50q125 0 189.5 92t64.5 230q-137 43 -235 43q-92 0 -151.5 -48.5t-59.5 -134.5zM600 1241v172
q0 20 21 21h172q20 0 20 -21v-172q0 -20 -20 -20h-172q-21 0 -21 20z" />
    <glyph glyph-name="aring" unicode="&#xe5;" 
d="M123 313q0 160 108.5 247t249.5 87q115 0 256 -43v76q0 217 -194 217q-162 0 -205 -143q-4 -18 -29 -19h-131q-14 0 -14 12.5t2 20.5q31 121 130 201t247 80q178 0 266 -98.5t88 -270.5v-483q0 -113 35 -177q2 -4 2 -10q0 -10 -16 -10h-160q-20 0 -21 20v93
q-63 -72 -128.5 -102.5t-162.5 -30.5q-137 0 -230 93t-93 240zM291 313q0 -82 54 -132t138 -50q125 0 189.5 92t64.5 230q-137 43 -235 43q-92 0 -151.5 -48.5t-59.5 -134.5zM365 1302.5q0 75.5 50 124t128 48.5t128 -48.5t50 -124t-50 -124t-128 -48.5t-128 48.5t-50 124z
M463 1302.5q0 -36.5 22.5 -59t57.5 -22.5t57.5 22.5t22.5 59t-22.5 59t-57.5 22.5t-57.5 -22.5t-22.5 -59z" />
    <glyph glyph-name="ae" unicode="&#xe6;" 
d="M53 299q0 147 106.5 232t254.5 85h12v277q-127 -12 -180 -152q-6 -18 -29 -18h-125q-14 0 -14 12.5t2 20.5q31 117 139.5 205t276.5 88h24q238 0 352.5 -150.5t114.5 -384.5v-29q0 -20 -20 -20h-381v-334q145 0 202 188q4 18 29 19h133q14 0 15 -14q0 -8 -4 -21
q-104 -324 -426 -323h-78q-193 0 -298.5 84.5t-105.5 234.5zM221 299q0 -80 47 -124t138 -44h20v334q-205 0 -205 -166zM586 616h221q-4 115 -60.5 196t-160.5 81v-277z" />
    <glyph glyph-name="ccedilla" unicode="&#xe7;" 
d="M96 514q0 238 116 386.5t320 148.5q170 0 270.5 -96.5t125.5 -245.5q2 -8 2 -20.5t-15 -12.5h-124q-25 0 -29 18q-45 205 -230 205q-133 0 -200.5 -102.5t-67.5 -280.5t67.5 -280.5t200.5 -102.5q184 0 230 205q4 18 29 18h124q14 0 14.5 -12t-1.5 -20
q-25 -145 -120 -240.5t-257 -101.5l-51 -105q49 14 112 14q74 0 117 -39.5t43 -105.5q0 -170 -203 -170q-88 0 -174 20q-20 6 -20 21v59q0 20 20 21q12 0 61.5 -11.5t106.5 -11.5q74 0 74 63.5t-74 63.5q-59 0 -125 -14q-8 -2 -14 -2q-10 0 -16 6l-25 25q-4 4 -4 12
q0 6 2 12l55 152q-162 33 -251 174t-89 350z" />
    <glyph glyph-name="egrave" unicode="&#xe8;" 
d="M98 514q0 229 120 382t312 153q207 0 310.5 -152t103.5 -383v-29q0 -20 -20 -20h-654q6 -152 72 -243t188 -91q90 0 139.5 46t82.5 142q6 18 28 19h133q14 0 15 -14q0 -8 -4 -21q-55 -156 -144.5 -239.5t-249.5 -83.5q-203 0 -317.5 150.5t-114.5 383.5zM279 616h493
q-14 137 -76.5 209t-165.5 72q-208 0 -251 -281zM283 1423q0 10 14 11h205q23 0 30 -21l117 -258q2 -4 2 -8q0 -12 -14 -12h-129q-20 0 -37 18l-184 260q-4 6 -4 10z" />
    <glyph glyph-name="eacute" unicode="&#xe9;" 
d="M98 514q0 229 120 382t312 153q207 0 310.5 -152t103.5 -383v-29q0 -20 -20 -20h-654q6 -152 72 -243t188 -91q90 0 139.5 46t82.5 142q6 18 28 19h133q14 0 15 -14q0 -8 -4 -21q-55 -156 -144.5 -239.5t-249.5 -83.5q-203 0 -317.5 150.5t-114.5 383.5zM279 616h493
q-14 137 -76.5 209t-165.5 72q-208 0 -251 -281zM397 1147q0 4 2 8l117 258q8 20 31 21h205q14 0 14 -11q0 -4 -4 -10l-184 -260q-16 -18 -37 -18h-129q-15 0 -15 12z" />
    <glyph glyph-name="ecircumflex" unicode="&#xea;" 
d="M98 514q0 229 120 382t312 153q207 0 310.5 -152t103.5 -383v-29q0 -20 -20 -20h-654q6 -152 72 -243t188 -91q90 0 139.5 46t82.5 142q6 18 28 19h133q14 0 15 -14q0 -8 -4 -21q-55 -156 -144.5 -239.5t-249.5 -83.5q-203 0 -317.5 150.5t-114.5 383.5zM248 1145
q0 4 4 10l190 262q14 16 31 17h115q16 0 30 -17l191 -262q4 -6 4 -10q0 -10 -14 -10h-127q-20 0 -37 18l-105 121l-104 -121q-16 -18 -37 -18h-127q-14 0 -14 10zM279 616h493q-14 137 -76.5 209t-165.5 72q-208 0 -251 -281z" />
    <glyph glyph-name="edieresis" unicode="&#xeb;" 
d="M98 514q0 229 120 382t312 153q207 0 310.5 -152t103.5 -383v-29q0 -20 -20 -20h-654q6 -152 72 -243t188 -91q90 0 139.5 46t82.5 142q6 18 28 19h133q14 0 15 -14q0 -8 -4 -21q-55 -156 -144.5 -239.5t-249.5 -83.5q-203 0 -317.5 150.5t-114.5 383.5zM258 1241v172
q0 20 21 21h172q20 0 20 -21v-172q0 -20 -20 -20h-172q-21 0 -21 20zM279 616h493q-14 137 -76.5 209t-165.5 72q-208 0 -251 -281zM590 1241v172q0 20 20 21h172q20 0 21 -21v-172q0 -20 -21 -20h-172q-20 0 -20 20z" />
    <glyph glyph-name="igrave" unicode="&#xec;" 
d="M156 20v111q0 20 20 21h289v729h-236q-20 0 -20 20v107q0 20 20 20h375q20 0 21 -20v-856h288q20 0 21 -21v-111q0 -20 -21 -20h-737q-20 0 -20 20zM260 1423q0 10 14 11h205q23 0 31 -21l117 -258q2 -4 2 -8q0 -12 -15 -12h-129q-23 0 -36 18l-185 260q-4 6 -4 10z" />
    <glyph glyph-name="iacute" unicode="&#xed;" 
d="M156 20v111q0 20 20 21h289v729h-236q-20 0 -20 20v107q0 20 20 20h375q20 0 21 -20v-856h288q20 0 21 -21v-111q0 -20 -21 -20h-737q-20 0 -20 20zM399 1147q0 4 2 8l117 258q8 20 31 21h205q14 0 14 -11q0 -4 -4 -10l-184 -260q-14 -18 -37 -18h-129q-15 0 -15 12z" />
    <glyph glyph-name="icircumflex" unicode="&#xee;" 
d="M156 20v111q0 20 20 21h289v729h-236q-20 0 -20 20v107q0 20 20 20h375q20 0 21 -20v-856h288q20 0 21 -21v-111q0 -20 -21 -20h-737q-20 0 -20 20zM248 1145q0 4 4 10l190 262q14 16 31 17h115q16 0 30 -17l191 -262q4 -6 4 -10q0 -10 -14 -10h-127q-20 0 -37 18
l-105 121l-104 -121q-16 -18 -37 -18h-127q-14 0 -14 10z" />
    <glyph glyph-name="idieresis" unicode="&#xef;" 
d="M156 20v111q0 20 20 21h289v729h-236q-20 0 -20 20v107q0 20 20 20h375q20 0 21 -20v-856h288q20 0 21 -21v-111q0 -20 -21 -20h-737q-20 0 -20 20zM258 1241v172q0 20 21 21h172q20 0 20 -21v-172q0 -20 -20 -20h-172q-21 0 -21 20zM590 1241v172q0 20 20 21h172
q20 0 21 -21v-172q0 -20 -21 -20h-172q-20 0 -20 20z" />
    <glyph glyph-name="eth" unicode="&#xf0;" 
d="M61 514q0 244 115 389.5t309 145.5q150 0 238 -86q-31 145 -121 206l-217 -84q-12 -4 -14 -4q-6 0 -13 15l-36 96q-2 6 -3 10q0 10 15 17l106 41q-66 23 -196 36q-16 2 -17 25l19 109q2 14 28 14q215 -20 369 -105l166 70q8 4 12 4q8 0 15 -14l45 -92q2 -6 2 -11
q0 -10 -15 -16l-100 -45q158 -156 158 -614q0 -326 -118 -483.5t-316 -157.5q-188 0 -309.5 146t-121.5 388zM229 514q0 -178 65.5 -280.5t197.5 -102.5q123 0 194.5 102.5t71.5 280.5t-68.5 280.5t-197.5 102.5q-131 0 -197 -102.5t-66 -280.5z" />
    <glyph glyph-name="ntilde" unicode="&#xf1;" 
d="M158 20v988q0 20 20 20h119q20 0 20 -20v-95q115 135 269 136q145 0 224 -78t79 -223v-728q0 -20 -21 -20h-118q-20 0 -21 20v705q0 172 -182 172q-100 0 -165 -94t-65 -262v-521q0 -20 -20 -20h-119q-20 0 -20 20zM201 1333q0 14 18 27q100 74 184 74q70 0 128.5 -42
t99.5 -42q47 0 114 51q8 4 15 4q10 0 20 -16l58 -86q2 -4 2 -9q0 -14 -19 -26q-100 -74 -184 -74q-70 0 -128 42t-99 42q-47 0 -115 -51q-8 -4 -14 -4q-10 0 -21 16l-57 86q-2 4 -2 8z" />
    <glyph glyph-name="ograve" unicode="&#xf2;" 
d="M70 514q0 248 119.5 391.5t322.5 143.5t322.5 -143.5t119.5 -391.5t-119.5 -391t-322.5 -143t-322.5 143t-119.5 391zM238 514q0 -178 71.5 -280.5t202.5 -102.5t202.5 102.5t71.5 280.5t-71.5 280.5t-202.5 102.5t-202.5 -102.5t-71.5 -280.5zM242 1423q0 10 14 11h205
q23 0 31 -21l116 -258q2 -4 2 -8q0 -12 -14 -12h-129q-20 0 -37 18l-184 260q-4 6 -4 10z" />
    <glyph glyph-name="oacute" unicode="&#xf3;" 
d="M70 514q0 248 119.5 391.5t322.5 143.5t322.5 -143.5t119.5 -391.5t-119.5 -391t-322.5 -143t-322.5 143t-119.5 391zM238 514q0 -178 71.5 -280.5t202.5 -102.5t202.5 102.5t71.5 280.5t-71.5 280.5t-202.5 102.5t-202.5 -102.5t-71.5 -280.5zM391 1147q0 4 2 8l117 258
q8 20 31 21h204q14 0 15 -11q0 -4 -4 -10l-185 -260q-14 -18 -36 -18h-129q-15 0 -15 12z" />
    <glyph glyph-name="ocircumflex" unicode="&#xf4;" 
d="M70 514q0 248 119.5 391.5t322.5 143.5t322.5 -143.5t119.5 -391.5t-119.5 -391t-322.5 -143t-322.5 143t-119.5 391zM229 1145q0 4 4 10l191 262q14 16 31 17h114q16 0 31 -17l191 -262q4 -6 4 -10q0 -10 -15 -10h-127q-23 0 -37 18l-104 121l-104 -121q-14 -18 -37 -18
h-127q-15 0 -15 10zM238 514q0 -178 71.5 -280.5t202.5 -102.5t202.5 102.5t71.5 280.5t-71.5 280.5t-202.5 102.5t-202.5 -102.5t-71.5 -280.5z" />
    <glyph glyph-name="otilde" unicode="&#xf5;" 
d="M70 514q0 248 119.5 391.5t322.5 143.5t322.5 -143.5t119.5 -391.5t-119.5 -391t-322.5 -143t-322.5 143t-119.5 391zM193 1333q0 14 18 27q100 74 184 74q70 0 128.5 -42t99.5 -42q47 0 114 51q8 4 15 4q10 0 20 -16l57 -86q2 -4 2 -9q0 -14 -18 -26q-100 -74 -184 -74
q-70 0 -128.5 42t-99.5 42q-47 0 -114 -51q-8 -4 -15 -4q-10 0 -20 16l-57 86q-2 4 -2 8zM238 514q0 -178 71.5 -280.5t202.5 -102.5t202.5 102.5t71.5 280.5t-71.5 280.5t-202.5 102.5t-202.5 -102.5t-71.5 -280.5z" />
    <glyph glyph-name="odieresis" unicode="&#xf6;" 
d="M70 514q0 248 119.5 391.5t322.5 143.5t322.5 -143.5t119.5 -391.5t-119.5 -391t-322.5 -143t-322.5 143t-119.5 391zM238 514q0 -178 71.5 -280.5t202.5 -102.5t202.5 102.5t71.5 280.5t-71.5 280.5t-202.5 102.5t-202.5 -102.5t-71.5 -280.5zM240 1241v172q0 20 20 21
h172q20 0 21 -21v-172q0 -20 -21 -20h-172q-20 0 -20 20zM571 1241v172q0 20 21 21h172q20 0 20 -21v-172q0 -20 -20 -20h-172q-21 0 -21 20z" />
    <glyph glyph-name="divide" unicode="&#xf7;" 
d="M131 506v119q0 20 21 20h720q20 0 21 -20v-119q0 -20 -21 -21h-720q-21 1 -21 21zM387 102v209q0 20 21 21h208q20 0 21 -21v-209q0 -20 -21 -20h-208q-21 0 -21 20zM387 819v209q0 20 21 21h208q20 0 21 -21v-209q0 -20 -21 -20h-208q-21 0 -21 20z" />
    <glyph glyph-name="oslash" unicode="&#xf8;" 
d="M70 514q0 248 119.5 391.5t322.5 143.5q121 0 219 -56l55 94q6 12 17 13q4 0 12 -4l55 -33q12 -8 13 -16q0 -4 -4 -13l-64 -106q139 -143 139 -414q0 -248 -119.5 -391t-322.5 -143q-121 0 -219 55l-55 -94q-6 -12 -17 -13q-4 0 -12 4l-55 33q-12 8 -13 17q0 4 4 12
l64 106q-139 144 -139 414zM238 514q0 -162 59 -262l356 606q-57 39 -141 39q-131 0 -202.5 -102.5t-71.5 -280.5zM371 170q57 -39 141 -39q131 0 202.5 102.5t71.5 280.5q0 162 -59 262z" />
    <glyph glyph-name="ugrave" unicode="&#xf9;" 
d="M139 281v727q0 20 21 20h119q20 0 20 -20v-705q0 -172 182 -172q100 0 165 94t65 262v521q0 20 20 20h119q20 0 20 -20v-988q0 -20 -20 -20h-119q-20 0 -20 20v95q-115 -135 -269 -135q-145 0 -224 78t-79 223zM285 1423q0 10 14 11h205q23 0 31 -21l116 -258q2 -4 2 -8
q0 -12 -14 -12h-129q-23 0 -37 18l-184 260q-4 6 -4 10z" />
    <glyph glyph-name="uacute" unicode="&#xfa;" 
d="M139 281v727q0 20 21 20h119q20 0 20 -20v-705q0 -172 182 -172q100 0 165 94t65 262v521q0 20 20 20h119q20 0 20 -20v-988q0 -20 -20 -20h-119q-20 0 -20 20v95q-115 -135 -269 -135q-145 0 -224 78t-79 223zM373 1147q0 4 2 8l117 258q8 20 30 21h205q14 0 14 -11
q0 -4 -4 -10l-184 -260q-16 -18 -37 -18h-129q-14 0 -14 12z" />
    <glyph glyph-name="ucircumflex" unicode="&#xfb;" 
d="M139 281v727q0 20 21 20h119q20 0 20 -20v-705q0 -172 182 -172q100 0 165 94t65 262v521q0 20 20 20h119q20 0 20 -20v-988q0 -20 -20 -20h-119q-20 0 -20 20v95q-115 -135 -269 -135q-145 0 -224 78t-79 223zM221 1145q0 4 4 10l191 262q14 16 30 17h115q16 0 31 -17
l190 -262q4 -6 4 -10q0 -10 -14 -10h-127q-23 0 -37 18l-104 121l-105 -121q-14 -18 -37 -18h-126q-15 0 -15 10z" />
    <glyph glyph-name="udieresis" unicode="&#xfc;" 
d="M139 281v727q0 20 21 20h119q20 0 20 -20v-705q0 -172 182 -172q100 0 165 94t65 262v521q0 20 20 20h119q20 0 20 -20v-988q0 -20 -20 -20h-119q-20 0 -20 20v95q-115 -135 -269 -135q-145 0 -224 78t-79 223zM242 1241v172q0 20 20 21h172q20 0 21 -21v-172
q0 -20 -21 -20h-172q-20 0 -20 20zM573 1241v172q0 20 21 21h172q20 0 20 -21v-172q0 -20 -20 -20h-172q-21 0 -21 20z" />
    <glyph glyph-name="yacute" unicode="&#xfd;" 
d="M111 -250q0 20 16 21q4 0 55 -22.5t99 -22.5q70 0 107.5 55t82.5 215l4 14l-358 985q-4 12 -4 17q0 16 16 16h147q20 0 27 -20l254 -758l213 758q8 20 29 20h141q16 0 16 -14q0 -2 -4 -15l-358 -1140q-47 -154 -116.5 -219.5t-184.5 -65.5q-90 0 -162 33q-20 12 -20 33
v110zM401 1147q0 4 2 8l117 258q8 20 31 21h205q14 0 14 -11q0 -4 -4 -10l-184 -260q-16 -18 -37 -18h-129q-15 0 -15 12z" />
    <glyph glyph-name="thorn" unicode="&#xfe;" 
d="M139 -385v1798q0 20 21 21h119q20 0 20 -21v-481q111 117 256 117q184 0 291.5 -142.5t107.5 -392.5t-107.5 -392t-291.5 -142q-145 0 -256 116v-481q0 -20 -20 -21h-119q-21 1 -21 21zM283 514q0 -178 66.5 -280.5t185 -102.5t185 102.5t66.5 280.5t-66.5 280.5
t-185 102.5t-185 -102.5t-66.5 -280.5z" />
    <glyph glyph-name="ydieresis" unicode="&#xff;" 
d="M111 -250q0 20 16 21q4 0 55 -22.5t99 -22.5q70 0 107.5 55t82.5 215l4 14l-358 985q-4 12 -4 17q0 16 16 16h147q20 0 27 -20l254 -758l213 758q8 20 29 20h141q16 0 16 -14q0 -2 -4 -15l-358 -1140q-47 -154 -116.5 -219.5t-184.5 -65.5q-90 0 -162 33q-20 12 -20 33
v110zM270 1241v172q0 20 21 21h172q20 0 20 -21v-172q0 -20 -20 -20h-172q-21 0 -21 20zM602 1241v172q0 20 21 21h172q20 0 20 -21v-172q0 -20 -20 -20h-172q-21 0 -21 20z" />
    <glyph glyph-name="Amacron" unicode="&#x100;" 
d="M27 20q0 6 2 13l379 1380q6 20 20 21h168q14 0 20 -21l379 -1380q2 -6 2 -13q0 -20 -22 -20h-139q-18 0 -25 20l-94 375h-410l-94 -375q-6 -20 -25 -20h-139q-22 0 -22 20zM301 1647v102q0 20 21 20h380q20 0 21 -20v-102q0 -20 -21 -21h-380q-21 1 -21 21zM348 559h328
l-164 653z" />
    <glyph glyph-name="amacron" unicode="&#x101;" 
d="M123 313q0 160 108.5 247t249.5 87q115 0 256 -43v76q0 217 -194 217q-162 0 -205 -143q-4 -18 -29 -19h-131q-14 0 -14 12.5t2 20.5q31 121 130 201t247 80q178 0 266 -98.5t88 -270.5v-483q0 -113 35 -177q2 -4 2 -10q0 -10 -16 -10h-160q-20 0 -21 20v93
q-63 -72 -128.5 -102.5t-162.5 -30.5q-137 0 -230 93t-93 240zM291 313q0 -82 54 -132t138 -50q125 0 189.5 92t64.5 230q-137 43 -235 43q-92 0 -151.5 -48.5t-59.5 -134.5zM334 1241v102q0 20 20 21h381q20 0 21 -21v-102q0 -20 -21 -20h-381q-20 0 -20 20z" />
    <glyph glyph-name="Abreve" unicode="&#x102;" 
d="M27 20q0 6 2 13l379 1380q6 20 20 21h168q14 0 20 -21l379 -1380q2 -6 2 -13q0 -20 -22 -20h-139q-18 0 -25 20l-94 375h-410l-94 -375q-6 -20 -25 -20h-139q-22 0 -22 20zM256 1788q0 20 20 20h99q20 0 20 -20q0 -49 31 -78t86 -29t86 29t31 78q0 20 20 20h99
q20 0 20 -20q0 -109 -70.5 -175.5t-185.5 -66.5t-185.5 66.5t-70.5 175.5zM348 559h328l-164 653z" />
    <glyph glyph-name="abreve" unicode="&#x103;" 
d="M123 313q0 160 108.5 247t249.5 87q115 0 256 -43v76q0 217 -194 217q-162 0 -205 -143q-4 -18 -29 -19h-131q-14 0 -14 12.5t2 20.5q31 121 130 201t247 80q178 0 266 -98.5t88 -270.5v-483q0 -113 35 -177q2 -4 2 -10q0 -10 -16 -10h-160q-20 0 -21 20v93
q-63 -72 -128.5 -102.5t-162.5 -30.5q-137 0 -230 93t-93 240zM291 313q0 -82 54 -132t138 -50q125 0 189.5 92t64.5 230q-137 43 -235 43q-92 0 -151.5 -48.5t-59.5 -134.5zM291 1382q0 20 20 21h99q20 0 20 -21q0 -49 31 -77.5t86 -28.5t86 28.5t31 77.5q0 20 20 21h98
q20 0 21 -21q0 -109 -70.5 -175t-185.5 -66t-185.5 66t-70.5 175z" />
    <glyph glyph-name="Aogonek" unicode="&#x104;" 
d="M27 20q0 6 2 13l379 1380q6 20 20 21h168q14 0 20 -21l379 -1380q2 -8 2 -13q0 -16 -16 -20q-129 -39 -129 -143q0 -47 36 -76t93 -29h20q20 0 21 -20v-70q0 -20 -21 -20h-61q-100 0 -169 47t-69 139q0 125 111 184l-96 383h-410l-94 -375q-6 -20 -25 -20h-139
q-22 0 -22 20zM348 559h328l-164 653z" />
    <glyph glyph-name="aogonek" unicode="&#x105;" 
d="M123 313q0 160 108.5 247t249.5 87q115 0 256 -43v76q0 217 -194 217q-162 0 -205 -143q-4 -18 -29 -19h-131q-14 0 -14 12.5t2 20.5q31 121 130 201t247 80q178 0 266 -98.5t88 -270.5v-483q0 -113 35 -177q2 -4 2 -10q0 -8 -8 -10q-129 -43 -129 -143q0 -47 35.5 -76
t93.5 -29h20q20 0 21 -20v-70q0 -20 -21 -20h-61q-100 0 -169 47t-69 139q0 113 90 172v113q-63 -72 -128.5 -102.5t-162.5 -30.5q-137 0 -230 93t-93 240zM291 313q0 -82 54 -132t138 -50q125 0 189.5 92t64.5 230q-137 43 -235 43q-92 0 -151.5 -48.5t-59.5 -134.5z" />
    <glyph glyph-name="Cacute" unicode="&#x106;" 
d="M74 716.5q0 362.5 130 550t341 187.5q193 0 311.5 -132t124.5 -329q0 -20 -23 -20h-124q-25 0 -25 20q-6 133 -75.5 215t-188.5 82q-139 0 -215 -143t-76 -430t76 -430.5t215 -143.5q119 0 188.5 82t75.5 215q0 20 25 21h124q23 0 23 -21q-6 -197 -125 -328.5
t-311 -131.5q-211 0 -341 187t-130 549.5zM432 1552q0 4 2 9l117 258q8 20 31 20h204q14 0 15 -10q0 -4 -4 -10l-185 -260q-14 -18 -37 -19h-129q-14 0 -14 12z" />
    <glyph glyph-name="cacute" unicode="&#x107;" 
d="M102 514q0 238 116 386.5t321 148.5q170 0 270 -96.5t125 -245.5q2 -8 2 -20.5t-14 -12.5h-125q-25 0 -29 18q-45 205 -229 205q-133 0 -201 -102.5t-68 -280.5t68 -280.5t201 -102.5q184 0 229 205q4 18 29 18h125q14 0 14 -12t-2 -20q-25 -150 -125 -246t-270 -96
q-205 0 -321 148t-116 386zM424 1147q0 4 2 8l117 258q8 20 30 21h205q14 0 15 -11q0 -4 -5 -10l-184 -260q-14 -18 -37 -18h-129q-14 0 -14 12z" />
    <glyph glyph-name="Ccircumflex" unicode="&#x108;" 
d="M74 716.5q0 362.5 130 550t341 187.5q193 0 311.5 -132t124.5 -329q0 -20 -23 -20h-124q-25 0 -25 20q-6 133 -75.5 215t-188.5 82q-139 0 -215 -143t-76 -430t76 -430.5t215 -143.5q119 0 188.5 82t75.5 215q0 20 25 21h124q23 0 23 -21q-6 -197 -125 -328.5
t-311 -131.5q-211 0 -341 187t-130 549.5zM262 1550q0 4 4 11l191 262q14 16 30 16h115q16 0 31 -16l190 -262q4 -6 4 -11q0 -10 -14 -10h-127q-23 0 -37 19l-104 120l-105 -120q-14 -18 -37 -19h-127q-14 0 -14 10z" />
    <glyph glyph-name="ccircumflex" unicode="&#x109;" 
d="M102 514q0 238 116 386.5t321 148.5q170 0 270 -96.5t125 -245.5q2 -8 2 -20.5t-14 -12.5h-125q-25 0 -29 18q-45 205 -229 205q-133 0 -201 -102.5t-68 -280.5t68 -280.5t201 -102.5q184 0 229 205q4 18 29 18h125q14 0 14 -12t-2 -20q-25 -150 -125 -246t-270 -96
q-205 0 -321 148t-116 386zM250 1145q0 4 4 10l190 262q14 16 31 17h115q16 0 31 -17l190 -262q4 -6 4 -10q0 -10 -14 -10h-127q-23 0 -37 18l-105 121l-104 -121q-14 -18 -37 -18h-127q-14 0 -14 10z" />
    <glyph glyph-name="Cdotaccent" unicode="&#x10a;" 
d="M74 716.5q0 362.5 130 550t341 187.5q193 0 311.5 -132t124.5 -329q0 -20 -23 -20h-124q-25 0 -25 20q-6 133 -75.5 215t-188.5 82q-139 0 -215 -143t-76 -430t76 -430.5t215 -143.5q119 0 188.5 82t75.5 215q0 20 25 21h124q23 0 23 -21q-6 -197 -125 -328.5
t-311 -131.5q-211 0 -341 187t-130 549.5zM436 1642v177q0 20 21 20h176q20 0 20 -20v-177q0 -20 -20 -20h-176q-21 0 -21 20z" />
    <glyph glyph-name="cdotaccent" unicode="&#x10b;" 
d="M102 514q0 238 116 386.5t321 148.5q170 0 270 -96.5t125 -245.5q2 -8 2 -20.5t-14 -12.5h-125q-25 0 -29 18q-45 205 -229 205q-133 0 -201 -102.5t-68 -280.5t68 -280.5t201 -102.5q184 0 229 205q4 18 29 18h125q14 0 14 -12t-2 -20q-25 -150 -125 -246t-270 -96
q-205 0 -321 148t-116 386zM424 1237v176q0 20 20 21h177q20 0 20 -21v-176q0 -20 -20 -20h-177q-20 0 -20 20z" />
    <glyph glyph-name="Ccaron" unicode="&#x10c;" 
d="M74 716.5q0 362.5 130 550t341 187.5q193 0 311.5 -132t124.5 -329q0 -20 -23 -20h-124q-25 0 -25 20q-6 133 -75.5 215t-188.5 82q-139 0 -215 -143t-76 -430t76 -430.5t215 -143.5q119 0 188.5 82t75.5 215q0 20 25 21h124q23 0 23 -21q-6 -197 -125 -328.5
t-311 -131.5q-211 0 -341 187t-130 549.5zM262 1829q0 10 14 10h127q23 0 37 -18l105 -121l104 121q14 18 37 18h127q14 0 14 -10q0 -4 -4 -10l-190 -263q-14 -16 -31 -16h-115q-16 0 -30 16l-191 263q-4 6 -4 10z" />
    <glyph glyph-name="ccaron" unicode="&#x10d;" 
d="M102 514q0 238 116 386.5t321 148.5q170 0 270 -96.5t125 -245.5q2 -8 2 -20.5t-14 -12.5h-125q-25 0 -29 18q-45 205 -229 205q-133 0 -201 -102.5t-68 -280.5t68 -280.5t201 -102.5q184 0 229 205q4 18 29 18h125q14 0 14 -12t-2 -20q-25 -150 -125 -246t-270 -96
q-205 0 -321 148t-116 386zM250 1423q0 10 14 11h127q23 0 37 -19l104 -121l105 121q14 18 37 19h127q14 0 14 -11q0 -4 -4 -10l-190 -262q-14 -16 -31 -16h-115q-16 0 -31 16l-190 262q-4 6 -4 10z" />
    <glyph glyph-name="Dcaron" unicode="&#x10e;" 
d="M121 20v1393q0 20 20 21h246q268 0 415.5 -183.5t147.5 -533.5t-147.5 -533.5t-415.5 -183.5h-246q-20 0 -20 20zM123 1829q0 10 14 10h127q23 0 37 -18l105 -121l104 121q14 18 37 18h127q14 0 14 -10q0 -4 -4 -10l-190 -263q-14 -16 -31 -16h-115q-16 0 -31 16
l-190 263q-4 6 -4 10zM293 164h94q197 0 290 135t93 417.5t-93 418t-290 135.5h-94v-1106z" />
    <glyph glyph-name="dcaron" unicode="&#x10f;" 
d="M-16 514q0 250 107.5 392.5t291.5 142.5q145 0 256 -117v481q0 20 20 21h119q20 0 21 -21v-1393q0 -20 -21 -20h-119q-20 0 -20 20v76q-111 -117 -256 -116q-184 0 -291.5 142t-107.5 392zM152 514q0 -178 66.5 -280.5t185 -102.5t185 102.5t66.5 280.5t-66.5 280.5
t-185 102.5t-185 -102.5t-66.5 -280.5zM858 942v74q0 20 21 20q57 0 75.5 22.5t18.5 86.5v39h-94q-20 0 -21 20v209q0 20 21 21h208q20 0 21 -21v-301q0 -88 -42 -139t-116 -51h-71q-21 0 -21 20z" />
    <glyph glyph-name="Dcroat" unicode="&#x110;" 
d="M29 657v119q0 20 20 21h101v616q0 20 20 21h246q268 0 415.5 -183.5t147.5 -533.5t-147.5 -533.5t-415.5 -183.5h-246q-20 0 -20 20v617h-101q-20 0 -20 20zM322 164h94q197 0 290 135t93 417.5t-93.5 418t-289.5 135.5h-94v-473h172q20 0 20 -21v-119q0 -20 -20 -20
h-172v-473z" />
    <glyph glyph-name="dcroat" unicode="&#x111;" 
d="M66 514q0 250 111.5 392.5t303.5 142.5q78 0 153 -34t120 -89v200h-176q-20 0 -21 21v106q0 20 21 21h176v139q0 20 20 21h119q20 0 20 -21v-139h82q20 0 21 -21v-106q0 -20 -21 -21h-82v-1106q0 -20 -20 -20h-119q-20 0 -20 20v86q-43 -57 -116 -91.5t-157 -34.5
q-193 0 -304 142t-111 392zM233 514q0 -176 69 -279.5t200 -103.5q127 0 197.5 104.5t70.5 278.5t-70.5 278.5t-197.5 104.5q-131 0 -200 -103.5t-69 -279.5z" />
    <glyph glyph-name="Emacron" unicode="&#x112;" 
d="M143 20v1393q0 20 21 21h715q20 0 20 -21v-123q0 -20 -20 -20h-564v-434h500q20 0 21 -21v-123q0 -20 -21 -20h-500v-508h578q20 0 20 -21v-123q0 -20 -20 -20h-729q-21 0 -21 20zM322 1647v102q0 20 20 20h381q20 0 20 -20v-102q0 -20 -20 -21h-381q-20 1 -20 21z" />
    <glyph glyph-name="emacron" unicode="&#x113;" 
d="M98 514q0 229 120 382t312 153q207 0 310.5 -152t103.5 -383v-29q0 -20 -20 -20h-654q6 -152 72 -243t188 -91q90 0 139.5 46t82.5 142q6 18 28 19h133q14 0 15 -14q0 -8 -4 -21q-55 -156 -144.5 -239.5t-249.5 -83.5q-203 0 -317.5 150.5t-114.5 383.5zM279 616h493
q-14 137 -76.5 209t-165.5 72q-208 0 -251 -281zM319 1241v102q0 20 21 21h381q20 0 20 -21v-102q0 -20 -20 -20h-381q-21 0 -21 20z" />
    <glyph glyph-name="Ebreve" unicode="&#x114;" 
d="M143 20v1393q0 20 21 21h715q20 0 20 -21v-123q0 -20 -20 -20h-564v-434h500q20 0 21 -21v-123q0 -20 -21 -20h-500v-508h578q20 0 20 -21v-123q0 -20 -20 -20h-729q-21 0 -21 20zM260 1788q0 20 21 20h98q20 0 20 -20q0 -49 31 -78t86 -29t86 29t31 78q0 20 20 20h99
q20 0 20 -20q0 -109 -70.5 -175.5t-185.5 -66.5t-185.5 66.5t-70.5 175.5z" />
    <glyph glyph-name="ebreve" unicode="&#x115;" 
d="M98 514q0 229 120 382t312 153q207 0 310.5 -152t103.5 -383v-29q0 -20 -20 -20h-654q6 -152 72 -243t188 -91q90 0 139.5 46t82.5 142q6 18 28 19h133q14 0 15 -14q0 -8 -4 -21q-55 -156 -144.5 -239.5t-249.5 -83.5q-203 0 -317.5 150.5t-114.5 383.5zM274 1382
q0 20 21 21h98q20 0 21 -21q0 -49 30.5 -77.5t86 -28.5t86 28.5t30.5 77.5q0 20 21 21h98q20 0 20 -21q0 -109 -70.5 -175t-185 -66t-185.5 66t-71 175zM279 616h493q-14 137 -76.5 209t-165.5 72q-208 0 -251 -281z" />
    <glyph glyph-name="Edotaccent" unicode="&#x116;" 
d="M143 20v1393q0 20 21 21h715q20 0 20 -21v-123q0 -20 -20 -20h-564v-434h500q20 0 21 -21v-123q0 -20 -21 -20h-500v-508h578q20 0 20 -21v-123q0 -20 -20 -20h-729q-21 0 -21 20zM422 1642v177q0 20 20 20h176q20 0 21 -20v-177q0 -20 -21 -20h-176q-20 0 -20 20z" />
    <glyph glyph-name="edotaccent" unicode="&#x117;" 
d="M98 514q0 229 120 382t312 153q207 0 310.5 -152t103.5 -383v-29q0 -20 -20 -20h-654q6 -152 72 -243t188 -91q90 0 139.5 46t82.5 142q6 18 28 19h133q14 0 15 -14q0 -8 -4 -21q-55 -156 -144.5 -239.5t-249.5 -83.5q-203 0 -317.5 150.5t-114.5 383.5zM279 616h493
q-14 137 -76.5 209t-165.5 72q-208 0 -251 -281zM422 1237v176q0 20 20 21h176q20 0 21 -21v-176q0 -20 -21 -20h-176q-20 0 -20 20z" />
    <glyph glyph-name="Eogonek" unicode="&#x118;" 
d="M143 20v1393q0 20 21 21h715q20 0 20 -21v-123q0 -20 -20 -20h-564v-434h500q20 0 21 -21v-123q0 -20 -21 -20h-500v-508h578q20 0 20 -21v-123q0 -18 -14 -20q-129 -39 -129 -143q0 -47 36 -76t93 -29h21q20 0 20 -20v-70q0 -20 -20 -20h-62q-100 0 -168.5 47t-68.5 139
q0 111 90 172h-547q-21 0 -21 20z" />
    <glyph glyph-name="eogonek" unicode="&#x119;" 
d="M98 514q0 229 120 382t312 153q207 0 310.5 -152t103.5 -383v-29q0 -20 -20 -20h-654q6 -152 72 -243t188 -91q90 0 139.5 46t82.5 142q6 18 28 19h133q14 0 15 -14q0 -8 -4 -21q-45 -123 -104.5 -197.5t-162.5 -109.5q-119 -39 -118 -139q0 -47 35.5 -76t93.5 -29h20
q20 0 21 -20v-70q0 -20 -21 -20h-61q-100 0 -169 47t-69 139q0 90 72 156q-170 27 -266.5 172t-96.5 358zM279 616h493q-14 137 -76.5 209t-165.5 72q-208 0 -251 -281z" />
    <glyph glyph-name="Ecaron" unicode="&#x11a;" 
d="M143 20v1393q0 20 21 21h715q20 0 20 -21v-123q0 -20 -20 -20h-564v-434h500q20 0 21 -21v-123q0 -20 -21 -20h-500v-508h578q20 0 20 -21v-123q0 -20 -20 -20h-729q-21 0 -21 20zM240 1829q0 10 14 10h127q20 0 37 -18l104 -121l105 121q16 18 37 18h127q14 0 14 -10
q0 -4 -4 -10l-191 -263q-14 -16 -30 -16h-115q-16 0 -31 16l-190 263q-4 6 -4 10z" />
    <glyph glyph-name="ecaron" unicode="&#x11b;" 
d="M98 514q0 229 120 382t312 153q207 0 310.5 -152t103.5 -383v-29q0 -20 -20 -20h-654q6 -152 72 -243t188 -91q90 0 139.5 46t82.5 142q6 18 28 19h133q14 0 15 -14q0 -8 -4 -21q-55 -156 -144.5 -239.5t-249.5 -83.5q-203 0 -317.5 150.5t-114.5 383.5zM248 1423
q0 10 14 11h127q20 0 37 -19l104 -121l105 121q16 18 37 19h127q14 0 14 -11q0 -4 -4 -10l-191 -262q-14 -16 -30 -16h-115q-16 0 -31 16l-190 262q-4 6 -4 10zM279 616h493q-14 137 -76.5 209t-165.5 72q-208 0 -251 -281z" />
    <glyph glyph-name="Gcircumflex" unicode="&#x11c;" 
d="M68 717q0 358 132 547.5t345 189.5q174 0 288.5 -115.5t122.5 -302.5q0 -20 -22 -20h-127q-23 0 -25 20q-33 254 -237 254q-297 0 -297 -573.5t309 -573.5q176 0 242 195v192h-211q-20 0 -21 21v123q0 20 21 20h362q20 0 21 -20v-330q0 -35 -23 -84q-121 -281 -391 -280
q-217 0 -353 190.5t-136 546.5zM262 1550q0 4 4 11l191 262q14 16 30 16h115q16 0 31 -16l190 -262q4 -6 4 -11q0 -10 -14 -10h-127q-23 0 -37 19l-104 120l-105 -120q-14 -18 -37 -19h-127q-14 0 -14 10z" />
    <glyph glyph-name="gcircumflex" unicode="&#x11d;" 
d="M70 315q0 76 43 139.5t114 100.5q-23 68 -22 143q0 158 94 254.5t244 96.5q113 0 192 -52l111 109q8 8 16 8q6 0 17 -10l77 -82q8 -8 8.5 -16.5t-10.5 -18.5l-108 -113q37 -76 37 -176q0 -158 -94.5 -253t-245.5 -95q-147 0 -238 86q-76 -49 -76 -133q0 -47 30 -80
t81 -33q35 0 116 19.5t138 19.5q176 0 275.5 -90t99.5 -243q0 -143 -110.5 -232.5t-303.5 -89.5q-197 0 -311.5 88t-114.5 234q0 109 64 188q-123 94 -123 231zM260 1145q0 4 4 10l191 262q14 16 30 17h115q16 0 31 -17l190 -262q4 -6 4 -10q0 -10 -14 -10h-127
q-20 0 -37 18l-104 121l-105 -121q-16 -18 -37 -18h-127q-14 0 -14 10zM289 -86q0 -82 69.5 -135t196.5 -53q115 0 184.5 47t69.5 123q0 182 -250 182q-45 0 -114.5 -15.5t-104.5 -17.5q-51 -51 -51 -131zM365 698q0 -94 51 -145t127 -51q78 0 129 51t51 145q0 96 -51 147.5
t-129 51.5q-76 0 -127 -51.5t-51 -147.5z" />
    <glyph glyph-name="Gbreve" unicode="&#x11e;" 
d="M68 717q0 358 132 547.5t345 189.5q174 0 288.5 -115.5t122.5 -302.5q0 -20 -22 -20h-127q-23 0 -25 20q-33 254 -237 254q-297 0 -297 -573.5t309 -573.5q176 0 242 195v192h-211q-20 0 -21 21v123q0 20 21 20h362q20 0 21 -20v-330q0 -35 -23 -84q-121 -281 -391 -280
q-217 0 -353 190.5t-136 546.5zM289 1788q0 20 20 20h99q20 0 20 -20q0 -49 30.5 -78t86 -29t86.5 29t31 78q0 20 20 20h98q20 0 21 -20q0 -109 -71 -175.5t-185.5 -66.5t-185 66.5t-70.5 175.5z" />
    <glyph glyph-name="gbreve" unicode="&#x11f;" 
d="M70 315q0 76 43 139.5t114 100.5q-23 68 -22 143q0 158 94 254.5t244 96.5q113 0 192 -52l111 109q8 8 16 8q6 0 17 -10l77 -82q8 -8 8.5 -16.5t-10.5 -18.5l-108 -113q37 -76 37 -176q0 -158 -94.5 -253t-245.5 -95q-147 0 -238 86q-76 -49 -76 -133q0 -47 30 -80
t81 -33q35 0 116 19.5t138 19.5q176 0 275.5 -90t99.5 -243q0 -143 -110.5 -232.5t-303.5 -89.5q-197 0 -311.5 88t-114.5 234q0 109 64 188q-123 94 -123 231zM287 1382q0 20 20 21h99q20 0 20 -21q0 -49 30.5 -77.5t86 -28.5t86 28.5t30.5 77.5q0 20 21 21h98q20 0 21 -21
q0 -109 -71 -175t-185.5 -66t-185 66t-70.5 175zM289 -86q0 -82 69.5 -135t196.5 -53q115 0 184.5 47t69.5 123q0 182 -250 182q-45 0 -114.5 -15.5t-104.5 -17.5q-51 -51 -51 -131zM365 698q0 -94 51 -145t127 -51q78 0 129 51t51 145q0 96 -51 147.5t-129 51.5
q-76 0 -127 -51.5t-51 -147.5z" />
    <glyph glyph-name="Gdotaccent" unicode="&#x120;" 
d="M68 717q0 358 132 547.5t345 189.5q174 0 288.5 -115.5t122.5 -302.5q0 -20 -22 -20h-127q-23 0 -25 20q-33 254 -237 254q-297 0 -297 -573.5t309 -573.5q176 0 242 195v192h-211q-20 0 -21 21v123q0 20 21 20h362q20 0 21 -20v-330q0 -35 -23 -84q-121 -281 -391 -280
q-217 0 -353 190.5t-136 546.5zM436 1642v177q0 20 21 20h176q20 0 20 -20v-177q0 -20 -20 -20h-176q-21 0 -21 20z" />
    <glyph glyph-name="gdotaccent" unicode="&#x121;" 
d="M70 315q0 76 43 139.5t114 100.5q-23 68 -22 143q0 158 94 254.5t244 96.5q113 0 192 -52l111 109q8 8 16 8q6 0 17 -10l77 -82q8 -8 8.5 -16.5t-10.5 -18.5l-108 -113q37 -76 37 -176q0 -158 -94.5 -253t-245.5 -95q-147 0 -238 86q-76 -49 -76 -133q0 -47 30 -80
t81 -33q35 0 116 19.5t138 19.5q176 0 275.5 -90t99.5 -243q0 -143 -110.5 -232.5t-303.5 -89.5q-197 0 -311.5 88t-114.5 234q0 109 64 188q-123 94 -123 231zM289 -86q0 -82 69.5 -135t196.5 -53q115 0 184.5 47t69.5 123q0 182 -250 182q-45 0 -114.5 -15.5t-104.5 -17.5
q-51 -51 -51 -131zM365 698q0 -94 51 -145t127 -51q78 0 129 51t51 145q0 96 -51 147.5t-129 51.5q-76 0 -127 -51.5t-51 -147.5zM434 1237v176q0 20 21 21h176q20 0 20 -21v-176q0 -20 -20 -20h-176q-21 0 -21 20z" />
    <glyph glyph-name="Gcommaaccent" unicode="&#x122;" 
d="M68 717q0 358 132 547.5t345 189.5q174 0 288.5 -115.5t122.5 -302.5q0 -20 -22 -20h-127q-23 0 -25 20q-33 254 -237 254q-297 0 -297 -573.5t309 -573.5q176 0 242 195v192h-211q-20 0 -21 21v123q0 20 21 20h362q20 0 21 -20v-330q0 -35 -23 -84q-121 -281 -391 -280
q-217 0 -353 190.5t-136 546.5zM434 -106q0 20 21 20h209q20 0 20 -20v-289q0 -166 -158 -166h-71q-20 0 -21 20v74q0 20 21 21q57 0 75.5 19t18.5 77v14h-94q-20 0 -21 21v209z" />
    <glyph glyph-name="gcommaaccent" unicode="&#x123;" 
d="M70 315q0 76 43 139.5t114 100.5q-23 68 -22 143q0 158 94 254.5t244 96.5q113 0 192 -52l111 109q8 8 16 8q6 0 17 -10l77 -82q8 -8 8.5 -16.5t-10.5 -18.5l-108 -113q37 -76 37 -176q0 -158 -94.5 -253t-245.5 -95q-147 0 -238 86q-76 -49 -76 -133q0 -47 30 -80
t81 -33q35 0 116 19.5t138 19.5q176 0 275.5 -90t99.5 -243q0 -143 -110.5 -232.5t-303.5 -89.5q-197 0 -311.5 88t-114.5 234q0 109 64 188q-123 94 -123 231zM289 -86q0 -82 69.5 -135t196.5 -53q115 0 184.5 47t69.5 123q0 182 -250 182q-45 0 -114.5 -15.5t-104.5 -17.5
q-51 -51 -51 -131zM365 698q0 -94 51 -145t127 -51q78 0 129 51t51 145q0 96 -51 147.5t-129 51.5q-76 0 -127 -51.5t-51 -147.5zM418 1176v301q0 88 42 139t115 51h72q20 0 21 -20v-74q0 -20 -21 -21q-57 0 -75.5 -22.5t-18.5 -85.5v-39h94q20 0 21 -21v-208q0 -20 -21 -21
h-209q-20 1 -20 21z" />
    <glyph glyph-name="Hcircumflex" unicode="&#x124;" 
d="M94 20v1393q0 20 21 21h131q20 0 20 -21v-584h492v584q0 20 20 21h131q20 0 21 -21v-1393q0 -20 -21 -20h-131q-20 0 -20 20v646h-492v-646q0 -20 -20 -20h-131q-21 0 -21 20zM229 1550q0 4 4 11l191 262q14 16 31 16h114q16 0 31 -16l191 -262q4 -6 4 -11q0 -10 -15 -10
h-127q-23 0 -37 19l-104 120l-104 -120q-14 -18 -37 -19h-127q-15 0 -15 10z" />
    <glyph glyph-name="hcircumflex" unicode="&#x125;" 
d="M164 20v1393q0 20 20 21h119q20 0 21 -21v-498q47 57 122.5 95.5t157.5 38.5q307 0 307 -324v-705q0 -20 -20 -20h-119q-20 0 -20 20v685q0 193 -179 192q-115 0 -182 -96t-67 -279v-502q0 -20 -21 -20h-119q-20 0 -20 20zM166 1550q0 4 4 11l190 262q14 16 31 16h115
q16 0 31 -16l190 -262q4 -6 4 -11q0 -10 -14 -10h-127q-20 0 -37 19l-104 120l-105 -120q-16 -18 -37 -19h-127q-14 0 -14 10z" />
    <glyph glyph-name="Hbar" unicode="&#x126;" 
d="M20 1065v111q0 20 21 20h53v217q0 20 21 21h131q20 0 20 -21v-217h492v217q0 20 20 21h131q20 0 21 -21v-217h53q20 0 21 -20v-111q0 -20 -21 -21h-53v-1024q0 -20 -21 -20h-131q-20 0 -20 20v646h-492v-646q0 -20 -20 -20h-131q-20 0 -21 20v1024h-53q-21 1 -21 21z
M266 829h492v215h-492v-215z" />
    <glyph glyph-name="hbar" unicode="&#x127;" 
d="M2 1147v106q0 20 21 21h81v139q0 20 21 21h119q20 0 20 -21v-139h182q20 0 21 -21v-106q0 -20 -21 -21h-182v-221q51 63 138 103.5t180 40.5q164 0 257 -94.5t93 -241.5v-693q0 -20 -21 -20h-118q-20 0 -21 20v658q0 104 -57.5 161.5t-165.5 57.5q-121 0 -203 -98.5
t-82 -257.5v-521q0 -20 -20 -20h-119q-20 0 -21 20v1106h-81q-21 1 -21 21z" />
    <glyph glyph-name="Itilde" unicode="&#x128;" 
d="M145 20v123q0 20 21 21h260v1106h-240q-20 0 -20 20v123q0 20 20 21h652q20 0 20 -21v-123q0 -20 -20 -20h-240v-1106h260q20 0 21 -21v-123q0 -20 -21 -20h-692q-21 0 -21 20zM193 1739q0 14 18 26q100 74 184 74q70 0 128.5 -42t99.5 -42q47 0 114 51q8 4 15 4
q10 0 20 -16l57 -86q2 -4 2 -8q0 -14 -18 -27q-100 -74 -184 -74q-70 0 -128.5 42t-99.5 42q-47 0 -114 -51q-8 -4 -15 -4q-10 0 -20 17l-57 86q-2 4 -2 8z" />
    <glyph glyph-name="itilde" unicode="&#x129;" 
d="M156 20v111q0 20 20 21h289v729h-236q-20 0 -20 20v107q0 20 20 20h375q20 0 21 -20v-856h288q20 0 21 -21v-111q0 -20 -21 -20h-737q-20 0 -20 20zM180 1333q0 14 19 27q100 74 184 74q70 0 128 -42t99 -42q47 0 115 51q8 4 14 4q10 0 21 -16l57 -86q2 -4 2 -9
q0 -14 -18 -26q-100 -74 -185 -74q-70 0 -128 42t-99 42q-47 0 -115 -51q-8 -4 -14 -4q-10 0 -20 16l-58 86q-2 4 -2 8z" />
    <glyph glyph-name="Imacron" unicode="&#x12a;" 
d="M145 20v123q0 20 21 21h260v1106h-240q-20 0 -20 20v123q0 20 20 21h652q20 0 20 -21v-123q0 -20 -20 -20h-240v-1106h260q20 0 21 -21v-123q0 -20 -21 -20h-692q-21 0 -21 20zM301 1647v102q0 20 21 20h380q20 0 21 -20v-102q0 -20 -21 -21h-380q-21 1 -21 21z" />
    <glyph glyph-name="imacron" unicode="&#x12b;" 
d="M156 20v111q0 20 20 21h289v729h-236q-20 0 -20 20v107q0 20 20 20h375q20 0 21 -20v-856h288q20 0 21 -21v-111q0 -20 -21 -20h-737q-20 0 -20 20zM299 1241v102q0 20 20 21h381q20 0 21 -21v-102q0 -20 -21 -20h-381q-20 0 -20 20z" />
    <glyph glyph-name="Ibreve" unicode="&#x12c;" 
d="M145 20v123q0 20 21 21h260v1106h-240q-20 0 -20 20v123q0 20 20 21h652q20 0 20 -21v-123q0 -20 -20 -20h-240v-1106h260q20 0 21 -21v-123q0 -20 -21 -20h-692q-21 0 -21 20zM256 1788q0 20 20 20h99q20 0 20 -20q0 -49 31 -78t86 -29t86 29t31 78q0 20 20 20h99
q20 0 20 -20q0 -109 -70.5 -175.5t-185.5 -66.5t-185.5 66.5t-70.5 175.5z" />
    <glyph glyph-name="ibreve" unicode="&#x12d;" 
d="M156 20v111q0 20 20 21h289v729h-236q-20 0 -20 20v107q0 20 20 20h375q20 0 21 -20v-856h288q20 0 21 -21v-111q0 -20 -21 -20h-737q-20 0 -20 20zM279 1382q0 20 20 21h98q20 0 21 -21q0 -49 30.5 -77.5t86 -28.5t86 28.5t30.5 77.5q0 20 21 21h98q20 0 21 -21
q0 -109 -71 -175t-185.5 -66t-185 66t-70.5 175z" />
    <glyph glyph-name="Iogonek" unicode="&#x12e;" 
d="M145 20v123q0 20 21 21h260v1106h-240q-20 0 -20 20v123q0 20 20 21h652q20 0 20 -21v-123q0 -20 -20 -20h-240v-1106h260q20 0 21 -21v-123q0 -18 -15 -20q-129 -39 -129 -143q0 -47 36 -76t93 -29h21q20 0 20 -20v-70q0 -20 -20 -20h-62q-100 0 -168.5 47t-68.5 139
q0 111 90 172h-510q-21 0 -21 20z" />
    <glyph glyph-name="iogonek" unicode="&#x12f;" 
d="M156 20v111q0 20 20 21h289v729h-236q-20 0 -20 20v107q0 20 20 20h375q20 0 21 -20v-856h288q20 0 21 -21v-111q0 -18 -14 -20q-129 -39 -129 -143q0 -47 35.5 -76t93.5 -29h20q20 0 21 -20v-70q0 -20 -21 -20h-61q-100 0 -169 47t-69 139q0 111 90 172h-555
q-20 0 -20 20zM422 1217v176q0 20 20 20h176q20 0 21 -20v-176q0 -20 -21 -21h-176q-20 1 -20 21z" />
    <glyph glyph-name="Idotaccent" unicode="&#x130;" 
d="M145 20v123q0 20 21 21h260v1106h-240q-20 0 -20 20v123q0 20 20 21h652q20 0 20 -21v-123q0 -20 -20 -20h-240v-1106h260q20 0 21 -21v-123q0 -20 -21 -20h-692q-21 0 -21 20zM403 1642v177q0 20 21 20h176q20 0 21 -20v-177q0 -20 -21 -20h-176q-21 0 -21 20z" />
    <glyph glyph-name="dotlessi" unicode="&#x131;" 
d="M156 20v111q0 20 20 21h289v729h-236q-20 0 -20 20v107q0 20 20 20h375q20 0 21 -20v-856h288q20 0 21 -21v-111q0 -20 -21 -20h-737q-20 0 -20 20z" />
    <glyph glyph-name="IJ" unicode="&#x132;" 
d="M35 20v123q0 20 20 21h166v1106h-145q-20 0 -21 20v123q0 20 21 21h463q20 0 20 -21v-123q0 -20 -20 -20h-146v-1106h166q20 0 21 -21v-123q0 -20 -21 -20h-504q-20 0 -20 20zM639 20v123q0 20 20 21q117 0 144.5 30.5t27.5 159.5v1059q0 20 21 21h131q20 0 21 -21v-1067
q0 -115 -15.5 -181.5t-58.5 -104t-103.5 -49t-167.5 -11.5q-20 0 -20 20z" />
    <glyph glyph-name="ij" unicode="&#x133;" 
d="M61 20v111q0 20 21 21h190v729h-157q-20 0 -21 20v107q0 20 21 20h297q20 0 20 -20v-856h191q20 0 20 -21v-111q0 -20 -20 -20h-541q-21 0 -21 20zM229 1237v176q0 20 21 21h176q20 0 20 -21v-176q0 -20 -20 -20h-176q-21 0 -21 20zM559 901v107q0 20 21 20h358
q20 0 20 -20v-1114q0 -240 -61 -388q-6 -16 -14 -16l-11 2l-120 35q-12 4 -13 12q0 4 2 10q57 150 58 320v1012h-219q-21 0 -21 20zM750 1237v176q0 20 20 21h176q20 0 21 -21v-176q0 -20 -21 -20h-176q-20 0 -20 20z" />
    <glyph glyph-name="Jcircumflex" unicode="&#x134;" 
d="M80 436q0 20 20 21h131q20 0 21 -21q0 -135 58.5 -214t164.5 -79q125 0 174 83t49 270v917q0 20 21 21h131q20 0 20 -21v-926q0 -508 -395 -507q-195 0 -295 126.5t-100 329.5zM502 1550q0 4 4 11l190 262q14 16 31 16h115q16 0 30 -16l191 -262q4 -6 4 -11
q0 -10 -14 -10h-127q-20 0 -37 19l-105 120l-104 -120q-16 -18 -37 -19h-127q-14 0 -14 10z" />
    <glyph glyph-name="jcircumflex" unicode="&#x135;" 
d="M203 901v107q0 20 20 20h563q20 0 21 -20v-1114q0 -240 -62 -388q-6 -16 -14 -16l-10 2l-121 35q-12 4 -12 12q0 4 2 10q57 150 57 320v1012h-424q-20 0 -20 20zM250 1145q0 4 4 10l190 262q14 16 31 17h115q16 0 31 -17l190 -262q4 -6 4 -10q0 -10 -14 -10h-127
q-23 0 -37 18l-105 121l-104 -121q-14 -18 -37 -18h-127q-14 0 -14 10z" />
    <glyph glyph-name="Kcommaaccent" unicode="&#x136;" 
d="M156 20v1393q0 20 20 21h131q20 0 21 -21v-555l434 555q18 20 33 21h155q18 0 19 -13q0 -8 -6 -16l-340 -432l358 -944q2 -6 2 -13q0 -16 -16 -16h-142q-27 0 -37 31l-294 776l-166 -211v-576q0 -20 -21 -20h-131q-20 0 -20 20zM426 -106q0 20 20 20h209q20 0 21 -20
v-289q0 -166 -158 -166h-72q-20 0 -20 20v74q0 20 20 21q57 0 76 19t19 77v14h-95q-20 0 -20 21v209z" />
    <glyph glyph-name="kcommaaccent" unicode="&#x137;" 
d="M168 20v1393q0 20 20 21h119q20 0 21 -21v-805l350 402q18 18 33 18h163q16 0 17 -14q0 -6 -8 -17l-297 -331l340 -635q4 -8 4 -15q0 -16 -19 -16h-135q-23 0 -33 18l-274 517l-141 -158v-357q0 -20 -21 -20h-119q-20 0 -20 20zM418 -106q0 20 20 20h209q20 0 21 -20
v-289q0 -166 -158 -166h-72q-20 0 -20 20v74q0 20 20 21q57 0 75.5 19t18.5 77v14h-94q-20 0 -20 21v209z" />
    <glyph glyph-name="kgreenlandic" unicode="&#x138;" 
d="M168 20v988q0 20 20 20h119q20 0 21 -20v-400l350 402q18 18 33 18h163q16 0 17 -14q0 -6 -8 -17l-297 -331l340 -635q4 -8 4 -15q0 -16 -19 -16h-135q-23 0 -33 18l-274 517l-141 -158v-357q0 -20 -21 -20h-119q-20 0 -20 20z" />
    <glyph glyph-name="Lacute" unicode="&#x139;" 
d="M201 20v1393q0 20 20 21h131q20 0 21 -21v-1249h581q20 0 21 -21v-123q0 -20 -21 -20h-733q-20 0 -20 20zM201 1552q0 4 2 9l116 258q8 20 31 20h205q14 0 14 -10q0 -4 -4 -10l-184 -260q-16 -18 -37 -19h-129q-14 0 -14 12z" />
    <glyph glyph-name="lacute" unicode="&#x13a;" 
d="M123 20v111q0 20 20 21h308v1130h-263q-20 0 -20 21v110q0 20 20 21h402q20 0 20 -21v-1261h308q20 0 20 -21v-111q0 -20 -20 -20h-775q-20 0 -20 20zM389 1552q0 4 2 9l117 258q8 20 31 20h204q14 0 15 -10q0 -4 -4 -10l-185 -260q-16 -18 -37 -19h-129q-14 0 -14 12z
" />
    <glyph glyph-name="Lcommaaccent" unicode="&#x13b;" 
d="M201 20v1393q0 20 20 21h131q20 0 21 -21v-1249h581q20 0 21 -21v-123q0 -20 -21 -20h-733q-20 0 -20 20zM479 -106q0 20 21 20h209q20 0 20 -20v-289q0 -166 -158 -166h-71q-20 0 -21 20v74q0 20 21 21q57 0 75.5 19t18.5 77v14h-94q-20 0 -21 21v209z" />
    <glyph glyph-name="lcommaaccent" unicode="&#x13c;" 
d="M123 20v111q0 20 20 21h308v1130h-263q-20 0 -20 21v110q0 20 20 21h402q20 0 20 -21v-1261h308q20 0 20 -21v-111q0 -20 -20 -20h-775q-20 0 -20 20zM403 -106q0 20 21 20h209q20 0 20 -20v-289q0 -166 -157 -166h-72q-20 0 -21 20v74q0 20 21 21q57 0 75.5 19t18.5 77
v14h-94q-20 0 -21 21v209z" />
    <glyph glyph-name="Lcaron" unicode="&#x13d;" 
d="M201 20v1393q0 20 20 21h131q20 0 21 -21v-1249h581q20 0 21 -21v-123q0 -20 -21 -20h-733q-20 0 -20 20zM621 942v74q0 20 20 20q57 0 75.5 22.5t18.5 86.5v39h-94q-20 0 -20 20v209q0 20 20 21h209q20 0 20 -21v-301q0 -88 -42 -139t-115 -51h-72q-20 0 -20 20z" />
    <glyph glyph-name="lcaron" unicode="&#x13e;" 
d="M123 20v111q0 20 20 21h308v1130h-263q-20 0 -20 21v110q0 20 20 21h402q20 0 20 -21v-1261h308q20 0 20 -21v-111q0 -20 -20 -20h-775q-20 0 -20 20zM743 942v74q0 20 21 20q57 0 75.5 22.5t18.5 86.5v39h-94q-20 0 -21 20v209q0 20 21 21h209q20 0 20 -21v-301
q0 -88 -42 -139t-115 -51h-72q-21 0 -21 20z" />
    <glyph glyph-name="Ldot" unicode="&#x13f;" 
d="M201 20v1393q0 20 20 21h131q20 0 21 -21v-1249h581q20 0 21 -21v-123q0 -20 -21 -20h-733q-20 0 -20 20zM569 635v209q0 20 21 20h209q20 0 20 -20v-209q0 -20 -20 -21h-209q-21 1 -21 21z" />
    <glyph glyph-name="ldot" unicode="&#x140;" 
d="M123 20v111q0 20 20 21h308v1130h-263q-20 0 -20 21v110q0 20 20 21h402q20 0 20 -21v-1261h308q20 0 20 -21v-111q0 -20 -20 -20h-775q-20 0 -20 20zM725 635v209q0 20 20 20h209q20 0 21 -20v-209q0 -20 -21 -21h-209q-20 1 -20 21z" />
    <glyph glyph-name="Lslash" unicode="&#x141;" 
d="M23 569q0 8 14 15l188 98v731q0 20 21 21h131q20 0 20 -21v-641l172 92q8 4 13 4q8 0 14 -12l53 -98q4 -8 4 -13q0 -8 -14 -14l-242 -127v-440h557q20 0 21 -21v-123q0 -20 -21 -20h-708q-20 0 -21 20v492l-119 -61q-8 -4 -12 -5q-8 0 -14 13l-53 98q-4 8 -4 12z" />
    <glyph glyph-name="lslash" unicode="&#x142;" 
d="M123 20v111q0 20 20 21h308v378l-152 -79q-8 -4 -12 -5q-8 0 -15 13l-53 98q-4 8 -4 12q0 8 14 15l222 116v582h-263q-20 0 -20 21v110q0 20 20 21h402q20 0 20 -21v-629l152 80q8 4 12 4q8 0 14 -12l54 -98q4 -8 4 -13q0 -8 -15 -14l-221 -117v-462h308q20 0 20 -21
v-111q0 -20 -20 -20h-775q-20 0 -20 20z" />
    <glyph glyph-name="Nacute" unicode="&#x143;" 
d="M102 20v1393q0 20 21 21h160q27 0 32 -17l435 -1069v1065q0 20 20 21h131q20 0 21 -21v-1393q0 -20 -21 -20h-160q-27 0 -32 16l-435 1069v-1065q0 -20 -20 -20h-131q-21 0 -21 20zM414 1552q0 4 2 9l116 258q8 20 31 20h205q14 0 14 -10q0 -4 -4 -10l-184 -260
q-16 -18 -37 -19h-129q-14 0 -14 12z" />
    <glyph glyph-name="nacute" unicode="&#x144;" 
d="M158 20v988q0 20 20 20h119q20 0 20 -20v-95q115 135 269 136q145 0 224 -78t79 -223v-728q0 -20 -21 -20h-118q-20 0 -21 20v705q0 172 -182 172q-100 0 -165 -94t-65 -262v-521q0 -20 -20 -20h-119q-20 0 -20 20zM432 1147q0 4 2 8l117 258q8 20 31 21h204q14 0 15 -11
q0 -4 -4 -10l-185 -260q-14 -18 -37 -18h-129q-14 0 -14 12z" />
    <glyph glyph-name="Ncommaaccent" unicode="&#x145;" 
d="M102 20v1393q0 20 21 21h160q27 0 32 -17l435 -1069v1065q0 20 20 21h131q20 0 21 -21v-1393q0 -20 -21 -20h-160q-27 0 -32 16l-435 1069v-1065q0 -20 -20 -20h-131q-21 0 -21 20zM395 -106q0 20 21 20h209q20 0 20 -20v-289q0 -166 -158 -166h-71q-20 0 -21 20v74
q0 20 21 21q57 0 75.5 19t18.5 77v14h-94q-20 0 -21 21v209z" />
    <glyph glyph-name="ncommaaccent" unicode="&#x146;" 
d="M158 20v988q0 20 20 20h119q20 0 20 -20v-95q115 135 269 136q145 0 224 -78t79 -223v-728q0 -20 -21 -20h-118q-20 0 -21 20v705q0 172 -182 172q-100 0 -165 -94t-65 -262v-521q0 -20 -20 -20h-119q-20 0 -20 20zM399 -106q0 20 21 20h209q20 0 20 -20v-289
q0 -166 -157 -166h-72q-20 0 -21 20v74q0 20 21 21q57 0 75.5 19t18.5 77v14h-94q-20 0 -21 21v209z" />
    <glyph glyph-name="Ncaron" unicode="&#x147;" 
d="M102 20v1393q0 20 21 21h160q27 0 32 -17l435 -1069v1065q0 20 20 21h131q20 0 21 -21v-1393q0 -20 -21 -20h-160q-27 0 -32 16l-435 1069v-1065q0 -20 -20 -20h-131q-21 0 -21 20zM229 1829q0 10 15 10h127q23 0 37 -18l104 -121l104 121q14 18 37 18h127q14 0 15 -10
q0 -4 -4 -10l-191 -263q-14 -16 -31 -16h-114q-16 0 -31 16l-191 263q-4 6 -4 10z" />
    <glyph glyph-name="ncaron" unicode="&#x148;" 
d="M158 20v988q0 20 20 20h119q20 0 20 -20v-95q115 135 269 136q145 0 224 -78t79 -223v-728q0 -20 -21 -20h-118q-20 0 -21 20v705q0 172 -182 172q-100 0 -165 -94t-65 -262v-521q0 -20 -20 -20h-119q-20 0 -20 20zM258 1423q0 10 14 11h127q23 0 37 -19l105 -121
l104 121q14 18 37 19h127q14 0 14 -11q0 -4 -4 -10l-190 -262q-14 -16 -31 -16h-115q-16 0 -30 16l-191 262q-4 6 -4 10z" />
    <glyph glyph-name="napostrophe" unicode="&#x149;" 
d="M-6 1001v74q0 20 20 21q57 0 76 22.5t19 85.5v39h-95q-20 0 -20 21v209q0 20 20 20h209q20 0 21 -20v-302q0 -88 -42 -139t-116 -51h-72q-20 0 -20 20zM285 18v988q0 20 20 20h119q20 0 20 -20v-95q115 135 269 136q145 0 224 -78t79 -224v-727q0 -20 -21 -20h-118
q-20 0 -21 20v705q0 172 -182 172q-100 0 -165 -94t-65 -262v-521q0 -20 -20 -20h-119q-20 0 -20 20z" />
    <glyph glyph-name="Eng" unicode="&#x14a;" 
d="M102 20v1393q0 20 21 21h160q27 0 32 -17l435 -1016v1012q0 20 20 21h131q20 0 21 -21v-1405q0 -260 -89.5 -347t-322.5 -87q-20 0 -21 20v123q0 20 21 21q152 0 196 50t44 228l-476 1074v-1070q0 -20 -20 -20h-131q-21 0 -21 20z" />
    <glyph glyph-name="eng" unicode="&#x14b;" 
d="M158 20v988q0 20 20 20h119q20 0 20 -20v-95q115 135 269 136q145 0 224 -78t79 -223v-854q0 -240 -62 -388q-6 -16 -14 -16l-10 2l-121 35q-12 4 -12 12q0 4 2 10q57 150 57 320v856q0 82 -49 127t-133 45q-100 0 -165 -94t-65 -262v-521q0 -20 -20 -20h-119
q-20 0 -20 20z" />
    <glyph glyph-name="Omacron" unicode="&#x14c;" 
d="M53 716.5q0 360.5 123 549t336 188.5t336 -188.5t123 -549t-123 -548.5t-336 -188t-336 188t-123 548.5zM233 716.5q0 -573.5 279 -573.5t279 573.5t-279 573.5t-279 -573.5zM301 1647v102q0 20 21 20h380q20 0 21 -20v-102q0 -20 -21 -21h-380q-21 1 -21 21z" />
    <glyph glyph-name="omacron" unicode="&#x14d;" 
d="M70 514q0 248 119.5 391.5t322.5 143.5t322.5 -143.5t119.5 -391.5t-119.5 -391t-322.5 -143t-322.5 143t-119.5 391zM238 514q0 -178 71.5 -280.5t202.5 -102.5t202.5 102.5t71.5 280.5t-71.5 280.5t-202.5 102.5t-202.5 -102.5t-71.5 -280.5zM301 1241v102q0 20 21 21
h380q20 0 21 -21v-102q0 -20 -21 -20h-380q-21 0 -21 20z" />
    <glyph glyph-name="Obreve" unicode="&#x14e;" 
d="M53 716.5q0 360.5 123 549t336 188.5t336 -188.5t123 -549t-123 -548.5t-336 -188t-336 188t-123 548.5zM233 716.5q0 -573.5 279 -573.5t279 573.5t-279 573.5t-279 -573.5zM256 1788q0 20 20 20h99q20 0 20 -20q0 -49 31 -78t86 -29t86 29t31 78q0 20 20 20h99
q20 0 20 -20q0 -109 -70.5 -175.5t-185.5 -66.5t-185.5 66.5t-70.5 175.5z" />
    <glyph glyph-name="obreve" unicode="&#x14f;" 
d="M70 514q0 248 119.5 391.5t322.5 143.5t322.5 -143.5t119.5 -391.5t-119.5 -391t-322.5 -143t-322.5 143t-119.5 391zM238 514q0 -178 71.5 -280.5t202.5 -102.5t202.5 102.5t71.5 280.5t-71.5 280.5t-202.5 102.5t-202.5 -102.5t-71.5 -280.5zM256 1382q0 20 20 21h99
q20 0 20 -21q0 -49 31 -77.5t86 -28.5t86 28.5t31 77.5q0 20 20 21h99q20 0 20 -21q0 -109 -70.5 -175t-185.5 -66t-185.5 66t-70.5 175z" />
    <glyph glyph-name="Ohungarumlaut" unicode="&#x150;" 
d="M53 716.5q0 360.5 123 549t336 188.5t336 -188.5t123 -549t-123 -548.5t-336 -188t-336 188t-123 548.5zM197 1552q0 4 2 9l116 258q8 20 31 20h205q14 0 14 -10q0 -4 -4 -10l-184 -260q-16 -18 -37 -19h-129q-14 0 -14 12zM233 716.5q0 -573.5 279 -573.5t279 573.5
t-279 573.5t-279 -573.5zM561 1552q0 4 2 9l117 258q8 20 31 20h204q14 0 15 -10q0 -4 -4 -10l-185 -260q-16 -18 -36 -19h-130q-14 0 -14 12z" />
    <glyph glyph-name="ohungarumlaut" unicode="&#x151;" 
d="M70 514q0 248 119.5 391.5t322.5 143.5t322.5 -143.5t119.5 -391.5t-119.5 -391t-322.5 -143t-322.5 143t-119.5 391zM197 1147q0 4 2 8l116 258q8 20 31 21h205q14 0 14 -11q0 -4 -4 -10l-184 -260q-16 -18 -37 -18h-129q-14 0 -14 12zM238 514q0 -178 71.5 -280.5
t202.5 -102.5t202.5 102.5t71.5 280.5t-71.5 280.5t-202.5 102.5t-202.5 -102.5t-71.5 -280.5zM561 1147q0 4 2 8l117 258q8 20 31 21h204q14 0 15 -11q0 -4 -4 -10l-185 -260q-16 -18 -36 -18h-130q-14 0 -14 12z" />
    <glyph glyph-name="OE" unicode="&#x152;" 
d="M23 717q0 385 98 561t293 176q49 0 106 -20h469q20 0 21 -21v-123q0 -20 -21 -20h-317v-434h299q20 0 20 -21v-123q0 -20 -20 -20h-299v-508h323q20 0 21 -21v-123q0 -20 -21 -20h-475q-57 -20 -106 -20q-195 0 -293 176t-98 561zM203 716.5q0 -573.5 200 -573.5
q57 0 97 27v1094q-39 27 -97 26q-200 0 -200 -573.5z" />
    <glyph glyph-name="oe" unicode="&#x153;" 
d="M78 514q0 250 120.5 392.5t327.5 142.5q221 0 333 -152t112 -383v-29q0 -20 -21 -20h-338v-326q63 16 102.5 59.5t63.5 120.5q6 18 29 19h133q14 0 14 -14q0 -8 -4 -21q-109 -324 -422 -323q-209 0 -329.5 142t-120.5 392zM246 514q0 -156 53 -253t154 -122v750
q-100 -27 -153.5 -124t-53.5 -251zM612 616h187q-20 223 -187 273v-273z" />
    <glyph glyph-name="Racute" unicode="&#x154;" 
d="M127 20v1393q0 20 20 21h377q199 0 307.5 -101.5t108.5 -277.5q0 -131 -66.5 -225.5t-183.5 -135.5l291 -674q2 -4 2 -8q0 -12 -16 -12h-148q-16 0 -28 20l-285 656h-207v-656q0 -20 -20 -20h-132q-20 0 -20 20zM299 840h246q121 0 172 54t51 160.5t-51 161t-172 54.5
h-246v-430zM326 1552q0 4 2 9l116 258q8 20 31 20h205q14 0 14 -10q0 -4 -4 -10l-184 -260q-14 -18 -37 -19h-129q-14 0 -14 12z" />
    <glyph glyph-name="racute" unicode="&#x155;" 
d="M182 20v988q0 20 21 20h119q20 0 20 -20v-101q109 141 303 142q104 0 177 -55.5t108 -141.5q4 -8 4 -14q0 -14 -12 -21l-119 -72q-6 -4 -15 -4q-10 0 -16 11q-39 78 -79 111.5t-109 33.5q-106 0 -174 -104.5t-68 -264.5v-508q0 -20 -20 -20h-119q-21 0 -21 20zM418 1147
q0 4 2 8l117 258q8 20 30 21h205q14 0 14 -11q0 -4 -4 -10l-184 -260q-16 -18 -37 -18h-129q-14 0 -14 12z" />
    <glyph glyph-name="Rcommaaccent" unicode="&#x156;" 
d="M127 20v1393q0 20 20 21h377q199 0 307.5 -101.5t108.5 -277.5q0 -131 -66.5 -225.5t-183.5 -135.5l291 -674q2 -4 2 -8q0 -12 -16 -12h-148q-16 0 -28 20l-285 656h-207v-656q0 -20 -20 -20h-132q-20 0 -20 20zM299 840h246q121 0 172 54t51 160.5t-51 161t-172 54.5
h-246v-430zM410 -106q0 20 20 20h209q20 0 20 -20v-289q0 -166 -157 -166h-72q-20 0 -20 20v74q0 20 20 21q57 0 75.5 19t18.5 77v14h-94q-20 0 -20 21v209z" />
    <glyph glyph-name="rcommaaccent" unicode="&#x157;" 
d="M182 20v988q0 20 21 20h119q20 0 20 -20v-101q109 141 303 142q104 0 177 -55.5t108 -141.5q4 -8 4 -14q0 -14 -12 -21l-119 -72q-6 -4 -15 -4q-10 0 -16 11q-39 78 -79 111.5t-109 33.5q-106 0 -174 -104.5t-68 -264.5v-508q0 -20 -20 -20h-119q-21 0 -21 20zM354 -106
q0 20 21 20h209q20 0 20 -20v-289q0 -166 -158 -166h-71q-20 0 -21 20v74q0 20 21 21q57 0 75.5 19t18.5 77v14h-94q-20 0 -21 21v209z" />
    <glyph glyph-name="Rcaron" unicode="&#x158;" 
d="M127 20v1393q0 20 20 21h377q199 0 307.5 -101.5t108.5 -277.5q0 -131 -66.5 -225.5t-183.5 -135.5l291 -674q2 -4 2 -8q0 -12 -16 -12h-148q-16 0 -28 20l-285 656h-207v-656q0 -20 -20 -20h-132q-20 0 -20 20zM195 1829q0 10 14 10h127q20 0 37 -18l104 -121l105 121
q16 18 36 18h127q14 0 15 -10q0 -4 -4 -10l-191 -263q-14 -16 -30 -16h-115q-16 0 -31 16l-190 263q-4 6 -4 10zM299 840h246q121 0 172 54t51 160.5t-51 161t-172 54.5h-246v-430z" />
    <glyph glyph-name="rcaron" unicode="&#x159;" 
d="M182 20v988q0 20 21 20h119q20 0 20 -20v-101q109 141 303 142q104 0 177 -55.5t108 -141.5q4 -8 4 -14q0 -14 -12 -21l-119 -72q-6 -4 -15 -4q-10 0 -16 11q-39 78 -79 111.5t-109 33.5q-106 0 -174 -104.5t-68 -264.5v-508q0 -20 -20 -20h-119q-21 0 -21 20zM268 1423
q0 10 15 11h127q20 0 36 -19l105 -121l104 121q16 18 37 19h127q14 0 15 -11q0 -4 -5 -10l-190 -262q-14 -16 -31 -16h-114q-16 0 -31 16l-191 262q-4 6 -4 10z" />
    <glyph glyph-name="Sacute" unicode="&#x15a;" 
d="M66 424q0 20 20 20h131q20 0 21 -20q0 -123 71.5 -202t200.5 -79q127 0 192.5 70t65.5 193q0 100 -67.5 156t-213.5 102q-193 59 -293 155t-100 250q0 180 114 282.5t281 102.5q197 0 305.5 -113.5t108.5 -285.5q0 -20 -20 -21h-131q-20 0 -21 21q0 100 -63.5 167.5
t-178.5 67.5q-106 0 -164.5 -55t-58.5 -154q0 -106 71 -161.5t228 -108.5q195 -66 285 -151t90 -240q0 -197 -122 -318.5t-308 -121.5q-199 0 -321.5 121.5t-122.5 322.5zM367 1552q0 4 2 9l116 258q8 20 31 20h205q14 0 14 -10q0 -4 -4 -10l-184 -260q-14 -18 -37 -19h-129
q-14 0 -14 12z" />
    <glyph glyph-name="sacute" unicode="&#x15b;" 
d="M150 313q0 20 20 21h131q18 0 21 -21q12 -88 70.5 -135t154.5 -47q92 0 141 41t49 109q0 78 -52 113.5t-200 62.5q-313 55 -313 299q0 133 95 213t249 80q164 0 253 -79t105 -216q0 -20 -20 -21h-115q-14 0 -20 21q-37 143 -201 143q-86 0 -136 -36t-50 -101
q0 -70 55 -108t197 -64q166 -31 243.5 -91.5t77.5 -195.5q0 -145 -100 -233t-264 -88q-174 0 -282.5 96t-108.5 237zM393 1147q0 4 2 8l117 258q8 20 31 21h205q14 0 14 -11q0 -4 -4 -10l-185 -260q-16 -18 -36 -18h-129q-15 0 -15 12z" />
    <glyph glyph-name="Scircumflex" unicode="&#x15c;" 
d="M66 424q0 20 20 20h131q20 0 21 -20q0 -123 71.5 -202t200.5 -79q127 0 192.5 70t65.5 193q0 100 -67.5 156t-213.5 102q-193 59 -293 155t-100 250q0 180 114 282.5t281 102.5q197 0 305.5 -113.5t108.5 -285.5q0 -20 -20 -21h-131q-20 0 -21 21q0 100 -63.5 167.5
t-178.5 67.5q-106 0 -164.5 -55t-58.5 -154q0 -106 71 -161.5t228 -108.5q195 -66 285 -151t90 -240q0 -197 -122 -318.5t-308 -121.5q-199 0 -321.5 121.5t-122.5 322.5zM213 1550q0 4 4 11l191 262q14 16 30 16h115q16 0 31 -16l190 -262q4 -6 4 -11q0 -10 -14 -10h-127
q-23 0 -37 19l-104 120l-105 -120q-14 -18 -37 -19h-127q-14 0 -14 10z" />
    <glyph glyph-name="scircumflex" unicode="&#x15d;" 
d="M150 313q0 20 20 21h131q18 0 21 -21q12 -88 70.5 -135t154.5 -47q92 0 141 41t49 109q0 78 -52 113.5t-200 62.5q-313 55 -313 299q0 133 95 213t249 80q164 0 253 -79t105 -216q0 -20 -20 -21h-115q-14 0 -20 21q-37 143 -201 143q-86 0 -136 -36t-50 -101
q0 -70 55 -108t197 -64q166 -31 243.5 -91.5t77.5 -195.5q0 -145 -100 -233t-264 -88q-174 0 -282.5 96t-108.5 237zM236 1145q0 4 4 10l190 262q14 16 31 17h114q16 0 31 -17l191 -262q4 -6 4 -10q0 -10 -15 -10h-127q-20 0 -36 18l-105 121l-104 -121q-16 -18 -37 -18
h-127q-14 0 -14 10z" />
    <glyph glyph-name="Scedilla" unicode="&#x15e;" 
d="M66 424q0 20 20 20h131q20 0 21 -20q0 -123 71.5 -202t200.5 -79q127 0 192.5 70t65.5 193q0 100 -67.5 156t-213.5 102q-193 59 -293 155t-100 250q0 180 114 282.5t281 102.5q197 0 305.5 -113.5t108.5 -285.5q0 -20 -20 -21h-131q-20 0 -21 21q0 100 -63.5 167.5
t-178.5 67.5q-106 0 -164.5 -55t-58.5 -154q0 -106 71 -161.5t228 -108.5q195 -66 285 -151t90 -240q0 -195 -120 -315.5t-304 -124.5l-51 -105q51 14 113 14q74 0 116.5 -39.5t42.5 -105.5q0 -170 -202 -170q-88 0 -175 20q-20 6 -20 21v59q0 20 20 21q12 0 61.5 -11.5
t106.5 -11.5q74 0 74 63.5t-74 63.5q-61 0 -125 -14q-8 -2 -14 -2q-10 0 -16 6l-25 25q-4 4 -4 12q0 6 2 12l55 152q-154 31 -244.5 146.5t-90.5 287.5z" />
    <glyph glyph-name="scedilla" unicode="&#x15f;" 
d="M150 313q0 20 20 21h131q18 0 21 -21q12 -88 70.5 -135t154.5 -47q92 0 141 41t49 109q0 78 -52 113.5t-200 62.5q-313 55 -313 299q0 133 95 213t249 80q164 0 253 -79t105 -216q0 -20 -20 -21h-115q-14 0 -20 21q-37 143 -201 143q-86 0 -136 -36t-50 -101
q0 -70 55 -108t197 -64q166 -31 243.5 -91.5t77.5 -195.5q0 -141 -97 -229t-255 -92l-51 -105q51 14 112 14q74 0 117 -39.5t43 -105.5q0 -170 -203 -170q-88 0 -174 20q-20 6 -20 21v59q0 20 20 21q12 0 61.5 -11.5t106.5 -11.5q74 0 74 63.5t-74 63.5q-61 0 -125 -14
q-8 -2 -14 -2q-10 0 -16 6l-25 25q-4 4 -4 12q0 6 2 12l55 152q-131 27 -209.5 115.5t-78.5 207.5z" />
    <glyph glyph-name="Scaron" unicode="&#x160;" 
d="M66 424q0 20 20 20h131q20 0 21 -20q0 -123 71.5 -202t200.5 -79q127 0 192.5 70t65.5 193q0 100 -67.5 156t-213.5 102q-193 59 -293 155t-100 250q0 180 114 282.5t281 102.5q197 0 305.5 -113.5t108.5 -285.5q0 -20 -20 -21h-131q-20 0 -21 21q0 100 -63.5 167.5
t-178.5 67.5q-106 0 -164.5 -55t-58.5 -154q0 -106 71 -161.5t228 -108.5q195 -66 285 -151t90 -240q0 -197 -122 -318.5t-308 -121.5q-199 0 -321.5 121.5t-122.5 322.5zM211 1829q0 10 14 10h127q20 0 37 -18l105 -121l104 121q16 18 37 18h127q14 0 14 -10q0 -4 -4 -10
l-190 -263q-14 -16 -31 -16h-115q-16 0 -30 16l-191 263q-4 6 -4 10z" />
    <glyph glyph-name="scaron" unicode="&#x161;" 
d="M150 313q0 20 20 21h131q18 0 21 -21q12 -88 70.5 -135t154.5 -47q92 0 141 41t49 109q0 78 -52 113.5t-200 62.5q-313 55 -313 299q0 133 95 213t249 80q164 0 253 -79t105 -216q0 -20 -20 -21h-115q-14 0 -20 21q-37 143 -201 143q-86 0 -136 -36t-50 -101
q0 -70 55 -108t197 -64q166 -31 243.5 -91.5t77.5 -195.5q0 -145 -100 -233t-264 -88q-174 0 -282.5 96t-108.5 237zM236 1423q0 10 14 11h127q20 0 37 -19l104 -121l105 121q16 18 36 19h127q14 0 15 -11q0 -4 -4 -10l-191 -262q-14 -16 -31 -16h-114q-16 0 -31 16
l-190 262q-4 6 -4 10z" />
    <glyph glyph-name="Tcommaaccent" unicode="&#x162;" 
d="M59 1290v123q0 20 21 21h864q20 0 21 -21v-123q0 -20 -21 -20h-346v-1250q0 -20 -20 -20h-132q-20 0 -20 20v1250h-346q-21 0 -21 20zM387 -106q0 20 21 20h208q20 0 21 -20v-289q0 -166 -158 -166h-71q-20 0 -21 20v74q0 20 21 21q57 0 75.5 19t18.5 77v14h-94
q-20 0 -21 21v209z" />
    <glyph glyph-name="tcommaaccent" unicode="&#x163;" 
d="M61 897v111q0 20 21 20h207v332q0 20 20 20h119q20 0 21 -20v-332h350q20 0 20 -20v-111q0 -20 -20 -20h-350v-521q0 -225 157 -225q80 0 120 48t50 157q2 18 23 18h119h8q2 0 5 -2t4 -6t1 -10q0 -147 -86 -251.5t-244 -104.5q-152 0 -234.5 95t-82.5 279v523h-207
q-21 0 -21 20zM481 -106q0 20 21 20h209q20 0 20 -20v-289q0 -166 -158 -166h-71q-20 0 -21 20v74q0 20 21 21q57 0 75.5 19t18.5 77v14h-94q-20 0 -21 21v209z" />
    <glyph glyph-name="Tcaron" unicode="&#x164;" 
d="M59 1290v123q0 20 21 21h864q20 0 21 -21v-123q0 -20 -21 -20h-346v-1250q0 -20 -20 -20h-132q-20 0 -20 20v1250h-346q-21 0 -21 20zM229 1829q0 10 15 10h127q23 0 37 -18l104 -121l104 121q14 18 37 18h127q14 0 15 -10q0 -4 -4 -10l-191 -263q-14 -16 -31 -16h-114
q-16 0 -31 16l-191 263q-4 6 -4 10z" />
    <glyph glyph-name="tcaron" unicode="&#x165;" 
d="M61 897v111q0 20 21 20h207v332q0 20 20 20h119q20 0 21 -20v-332h350q20 0 20 -20v-111q0 -20 -20 -20h-350v-521q0 -225 157 -225q80 0 120 48t50 157q2 18 23 18h119h8q2 0 5 -2t4 -6t1 -10q0 -147 -86 -251.5t-244 -104.5q-152 0 -234.5 95t-82.5 279v523h-207
q-21 0 -21 20zM750 1110v74q0 20 20 20q57 0 75.5 22.5t18.5 86.5v39h-94q-20 0 -20 20v209q0 20 20 21h209q20 0 20 -21v-301q0 -88 -42 -139t-115 -51h-72q-20 0 -20 20z" />
    <glyph glyph-name="Tbar" unicode="&#x166;" 
d="M59 1290v123q0 20 21 21h864q20 0 21 -21v-123q0 -20 -21 -20h-346v-279h252q20 0 20 -20v-111q0 -20 -20 -20h-252v-820q0 -20 -20 -20h-132q-20 0 -20 20v820h-252q-20 0 -20 20v111q0 20 20 20h252v279h-346q-21 0 -21 20z" />
    <glyph glyph-name="tbar" unicode="&#x167;" 
d="M61 897v111q0 20 21 20h207v332q0 20 20 20h119q20 0 21 -20v-332h350q20 0 20 -20v-111q0 -20 -20 -20h-350v-218h282q20 0 21 -20v-107q0 -20 -21 -20h-282v-156q0 -225 157 -225q80 0 120 48t50 157q2 18 23 18h119h8q2 0 5 -2t4 -6t1 -10q0 -147 -86 -251.5
t-244 -104.5q-152 0 -234.5 95t-82.5 279v158h-164q-20 0 -21 20v107q0 20 21 20h164v218h-207q-21 0 -21 20z" />
    <glyph glyph-name="Utilde" unicode="&#x168;" 
d="M82 459v954q0 20 20 21h131q20 0 21 -21v-932q0 -172 62.5 -255t195.5 -83t195.5 83t62.5 255v932q0 20 21 21h131q20 0 20 -21v-954q0 -233 -121 -356t-309 -123t-309 123t-121 356zM193 1739q0 14 18 26q100 74 184 74q70 0 128.5 -42t99.5 -42q47 0 114 51q8 4 15 4
q10 0 20 -16l57 -86q2 -4 2 -8q0 -14 -18 -27q-100 -74 -184 -74q-70 0 -128.5 42t-99.5 42q-47 0 -114 -51q-8 -4 -15 -4q-10 0 -20 17l-57 86q-2 4 -2 8z" />
    <glyph glyph-name="utilde" unicode="&#x169;" 
d="M139 281v727q0 20 21 20h119q20 0 20 -20v-705q0 -172 182 -172q100 0 165 94t65 262v521q0 20 20 20h119q20 0 20 -20v-988q0 -20 -20 -20h-119q-20 0 -20 20v95q-115 -135 -269 -135q-145 0 -224 78t-79 223zM193 1333q0 14 18 27q100 74 184 74q70 0 128.5 -42
t99.5 -42q47 0 114 51q8 4 15 4q10 0 20 -16l57 -86q2 -4 2 -9q0 -14 -18 -26q-100 -74 -184 -74q-70 0 -128.5 42t-99.5 42q-47 0 -114 -51q-8 -4 -15 -4q-10 0 -20 16l-57 86q-2 4 -2 8z" />
    <glyph glyph-name="Umacron" unicode="&#x16a;" 
d="M82 459v954q0 20 20 21h131q20 0 21 -21v-932q0 -172 62.5 -255t195.5 -83t195.5 83t62.5 255v932q0 20 21 21h131q20 0 20 -21v-954q0 -233 -121 -356t-309 -123t-309 123t-121 356zM301 1647v102q0 20 21 20h380q20 0 21 -20v-102q0 -20 -21 -21h-380q-21 1 -21 21z
" />
    <glyph glyph-name="umacron" unicode="&#x16b;" 
d="M139 281v727q0 20 21 20h119q20 0 20 -20v-705q0 -172 182 -172q100 0 165 94t65 262v521q0 20 20 20h119q20 0 20 -20v-988q0 -20 -20 -20h-119q-20 0 -20 20v95q-115 -135 -269 -135q-145 0 -224 78t-79 223zM301 1241v102q0 20 21 21h380q20 0 21 -21v-102
q0 -20 -21 -20h-380q-21 0 -21 20z" />
    <glyph glyph-name="Ubreve" unicode="&#x16c;" 
d="M82 459v954q0 20 20 21h131q20 0 21 -21v-932q0 -172 62.5 -255t195.5 -83t195.5 83t62.5 255v932q0 20 21 21h131q20 0 20 -21v-954q0 -233 -121 -356t-309 -123t-309 123t-121 356zM256 1788q0 20 20 20h99q20 0 20 -20q0 -49 31 -78t86 -29t86 29t31 78q0 20 20 20h99
q20 0 20 -20q0 -109 -70.5 -175.5t-185.5 -66.5t-185.5 66.5t-70.5 175.5z" />
    <glyph glyph-name="ubreve" unicode="&#x16d;" 
d="M139 281v727q0 20 21 20h119q20 0 20 -20v-705q0 -172 182 -172q100 0 165 94t65 262v521q0 20 20 20h119q20 0 20 -20v-988q0 -20 -20 -20h-119q-20 0 -20 20v95q-115 -135 -269 -135q-145 0 -224 78t-79 223zM256 1382q0 20 20 21h99q20 0 20 -21q0 -49 31 -77.5
t86 -28.5t86 28.5t31 77.5q0 20 20 21h99q20 0 20 -21q0 -109 -70.5 -175t-185.5 -66t-185.5 66t-70.5 175z" />
    <glyph glyph-name="Uring" unicode="&#x16e;" 
d="M82 459v954q0 20 20 21h131q20 0 21 -21v-932q0 -172 62.5 -255t195.5 -83t195.5 83t62.5 255v932q0 20 21 21h131q20 0 20 -21v-954q0 -233 -121 -356t-309 -123t-309 123t-121 356zM334 1708q0 76 50 124t128 48t128 -48t50 -124t-50 -124t-128 -48t-128 48t-50 124z
M432 1708q0 -37 22.5 -59.5t57.5 -22.5t57.5 22.5t22.5 59.5t-22.5 59.5t-57.5 22.5t-57.5 -22.5t-22.5 -59.5z" />
    <glyph glyph-name="uring" unicode="&#x16f;" 
d="M139 281v727q0 20 21 20h119q20 0 20 -20v-705q0 -172 182 -172q100 0 165 94t65 262v521q0 20 20 20h119q20 0 20 -20v-988q0 -20 -20 -20h-119q-20 0 -20 20v95q-115 -135 -269 -135q-145 0 -224 78t-79 223zM334 1302.5q0 75.5 50 124t128 48.5t128 -48.5t50 -124
t-50 -124t-128 -48.5t-128 48.5t-50 124zM432 1302.5q0 -36.5 22.5 -59t57.5 -22.5t57.5 22.5t22.5 59t-22.5 59t-57.5 22.5t-57.5 -22.5t-22.5 -59z" />
    <glyph glyph-name="Uhungarumlaut" unicode="&#x170;" 
d="M82 459v954q0 20 20 21h131q20 0 21 -21v-932q0 -172 62.5 -255t195.5 -83t195.5 83t62.5 255v932q0 20 21 21h131q20 0 20 -21v-954q0 -233 -121 -356t-309 -123t-309 123t-121 356zM197 1552q0 4 2 9l116 258q8 20 31 20h205q14 0 14 -10q0 -4 -4 -10l-184 -260
q-16 -18 -37 -19h-129q-14 0 -14 12zM561 1552q0 4 2 9l117 258q8 20 31 20h204q14 0 15 -10q0 -4 -4 -10l-185 -260q-16 -18 -36 -19h-130q-14 0 -14 12z" />
    <glyph glyph-name="uhungarumlaut" unicode="&#x171;" 
d="M139 281v727q0 20 21 20h119q20 0 20 -20v-705q0 -172 182 -172q100 0 165 94t65 262v521q0 20 20 20h119q20 0 20 -20v-988q0 -20 -20 -20h-119q-20 0 -20 20v95q-115 -135 -269 -135q-145 0 -224 78t-79 223zM188 1147q0 4 2 8l117 258q8 20 31 21h205q14 0 14 -11
q0 -4 -4 -10l-184 -260q-16 -18 -37 -18h-129q-15 0 -15 12zM553 1147q0 4 2 8l117 258q8 20 30 21h205q14 0 15 -11q0 -4 -4 -10l-185 -260q-16 -18 -37 -18h-129q-14 0 -14 12z" />
    <glyph glyph-name="Uogonek" unicode="&#x172;" 
d="M82 459v954q0 20 20 21h131q20 0 21 -21v-932q0 -172 62.5 -255t195.5 -83t195.5 83t62.5 255v932q0 20 21 21h131q20 0 20 -21v-954q0 -188 -78 -303t-211 -156q-59 -18 -94 -56t-35 -87q0 -47 36 -76t93 -29h21q20 0 20 -20v-70q0 -20 -20 -20h-62q-100 0 -168.5 47
t-68.5 139q0 98 71 160q-164 18 -264 138t-100 333z" />
    <glyph glyph-name="uogonek" unicode="&#x173;" 
d="M139 281v727q0 20 21 20h119q20 0 20 -20v-705q0 -172 182 -172q100 0 165 94t65 262v521q0 20 20 20h119q20 0 20 -20v-988q0 -18 -14 -20q-129 -39 -129 -143q0 -47 36 -76t93 -29h21q20 0 20 -20v-70q0 -20 -20 -20h-62q-100 0 -168.5 47t-68.5 139q0 137 133 195v92
q-115 -135 -269 -135q-145 0 -224 78t-79 223z" />
    <glyph glyph-name="Wcircumflex" unicode="&#x174;" 
d="M27 1413q0 20 16 21h131q25 0 25 -21l80 -1165l141 780q2 20 24 21h136q23 0 24 -21l141 -780l80 1165q0 20 25 21h131q16 0 16 -21l-116 -1393q-2 -20 -23 -20h-190q-16 0 -23 20l-133 730l-133 -730q-6 -20 -23 -20h-190q-20 0 -23 20zM229 1550q0 4 4 11l191 262
q14 16 31 16h114q16 0 31 -16l191 -262q4 -6 4 -11q0 -10 -15 -10h-127q-23 0 -37 19l-104 120l-104 -120q-14 -18 -37 -19h-127q-15 0 -15 10z" />
    <glyph glyph-name="wcircumflex" unicode="&#x175;" 
d="M29 1014q0 14 16 14h135q23 0 29 -20l86 -727l117 563q6 20 22 20h156q16 0 22 -20l117 -563l86 727q6 20 29 20h135q16 0 16 -14q0 -8 -2 -17l-157 -977q-4 -20 -27 -20h-143q-20 0 -27 20l-127 621l-127 -621q-6 -20 -27 -20h-143q-23 0 -27 20l-157 977q-2 9 -2 17z
M229 1145q0 4 4 10l191 262q14 16 31 17h114q16 0 31 -17l191 -262q4 -6 4 -10q0 -10 -15 -10h-127q-23 0 -37 18l-104 121l-104 -121q-14 -18 -37 -18h-127q-15 0 -15 10z" />
    <glyph glyph-name="Ycircumflex" unicode="&#x176;" 
d="M61 1423q0 10 13 11h162q16 0 22 -17l254 -565l254 565q6 16 22 17h162q12 0 13 -11q0 -4 -2 -10l-363 -751v-642q0 -20 -20 -20h-132q-20 0 -20 20v642l-363 751q-2 6 -2 10zM229 1550q0 4 4 11l191 262q14 16 31 16h114q16 0 31 -16l191 -262q4 -6 4 -11q0 -10 -15 -10
h-127q-23 0 -37 19l-104 120l-104 -120q-14 -18 -37 -19h-127q-15 0 -15 10z" />
    <glyph glyph-name="ycircumflex" unicode="&#x177;" 
d="M111 -250q0 20 16 21q4 0 55 -22.5t99 -22.5q70 0 107.5 55t82.5 215l4 14l-358 985q-4 12 -4 17q0 16 16 16h147q20 0 27 -20l254 -758l213 758q8 20 29 20h141q16 0 16 -14q0 -2 -4 -15l-358 -1140q-47 -154 -116.5 -219.5t-184.5 -65.5q-90 0 -162 33q-20 12 -20 33
v110zM262 1145q0 4 4 10l191 262q14 16 30 17h115q16 0 31 -17l190 -262q4 -6 4 -10q0 -10 -14 -10h-127q-23 0 -37 18l-104 121l-105 -121q-14 -18 -37 -18h-127q-14 0 -14 10z" />
    <glyph glyph-name="Ydieresis" unicode="&#x178;" 
d="M61 1423q0 10 13 11h162q16 0 22 -17l254 -565l254 565q6 16 22 17h162q12 0 13 -11q0 -4 -2 -10l-363 -751v-642q0 -20 -20 -20h-132q-20 0 -20 20v642l-363 751q-2 6 -2 10zM240 1647v172q0 20 20 20h172q20 0 21 -20v-172q0 -20 -21 -21h-172q-20 1 -20 21zM571 1647
v172q0 20 21 20h172q20 0 20 -20v-172q0 -20 -20 -21h-172q-21 1 -21 21z" />
    <glyph glyph-name="Zacute" unicode="&#x179;" 
d="M76 20v123q0 16 12 35l645 1092h-616q-20 0 -21 20v123q0 20 21 21h788q20 0 21 -21v-123q0 -16 -13 -35l-643 -1091h670q20 0 21 -21v-123q0 -20 -21 -20h-844q-20 0 -20 20zM375 1552q0 4 2 9l117 258q8 20 30 20h205q14 0 14 -10q0 -4 -4 -10l-184 -260
q-14 -18 -37 -19h-129q-14 0 -14 12z" />
    <glyph glyph-name="zacute" unicode="&#x17a;" 
d="M150 20v111q0 14 12 31l493 715h-446q-20 0 -21 20v111q0 20 21 20h610q20 0 21 -20v-111q0 -20 -17 -43l-483 -702h522q20 0 21 -21v-111q0 -20 -21 -20h-692q-20 0 -20 20zM383 1147q0 4 2 8l117 258q8 20 30 21h205q14 0 15 -11q0 -4 -4 -10l-185 -260
q-14 -18 -37 -18h-129q-14 0 -14 12z" />
    <glyph glyph-name="Zdotaccent" unicode="&#x17b;" 
d="M76 20v123q0 16 12 35l645 1092h-616q-20 0 -21 20v123q0 20 21 21h788q20 0 21 -21v-123q0 -16 -13 -35l-643 -1091h670q20 0 21 -21v-123q0 -20 -21 -20h-844q-20 0 -20 20zM414 1642v177q0 20 20 20h176q20 0 21 -20v-177q0 -20 -21 -20h-176q-20 0 -20 20z" />
    <glyph glyph-name="zdotaccent" unicode="&#x17c;" 
d="M150 20v111q0 14 12 31l493 715h-446q-20 0 -21 20v111q0 20 21 20h610q20 0 21 -20v-111q0 -20 -17 -43l-483 -702h522q20 0 21 -21v-111q0 -20 -21 -20h-692q-20 0 -20 20zM412 1237v176q0 20 20 21h176q20 0 21 -21v-176q0 -20 -21 -20h-176q-20 0 -20 20z" />
    <glyph glyph-name="Zcaron" unicode="&#x17d;" 
d="M76 20v123q0 16 12 35l645 1092h-616q-20 0 -21 20v123q0 20 21 21h788q20 0 21 -21v-123q0 -16 -13 -35l-643 -1091h670q20 0 21 -21v-123q0 -20 -21 -20h-844q-20 0 -20 20zM244 1829q0 10 14 10h127q20 0 37 -18l104 -121l105 121q16 18 37 18h127q14 0 14 -10
q0 -4 -4 -10l-191 -263q-14 -16 -30 -16h-115q-16 0 -31 16l-190 263q-4 6 -4 10z" />
    <glyph glyph-name="zcaron" unicode="&#x17e;" 
d="M150 20v111q0 14 12 31l493 715h-446q-20 0 -21 20v111q0 20 21 20h610q20 0 21 -20v-111q0 -20 -17 -43l-483 -702h522q20 0 21 -21v-111q0 -20 -21 -20h-692q-20 0 -20 20zM233 1423q0 10 15 11h127q23 0 37 -19l104 -121l105 121q14 18 36 19h127q14 0 15 -11
q0 -4 -4 -10l-191 -262q-14 -16 -31 -16h-114q-16 0 -31 16l-190 262q-5 6 -5 10z" />
    <glyph glyph-name="longs" unicode="&#x17f;" 
d="M123 897v111q0 20 20 20h215v64q0 160 84 261t242 101q119 0 205 -51q16 -12 16 -35v-108q0 -18 -16 -19q-8 0 -17 4q-88 57 -176 58q-86 0 -132 -54.5t-46 -156.5v-1072q0 -20 -20 -20h-119q-20 0 -21 20v857h-215q-20 0 -20 20z" />
    <glyph glyph-name="florin" unicode="&#x192;" 
d="M-31 -256q0 20 15 20q6 0 16 -4q72 -35 137 -34q88 0 128 55t54 192l121 904h-247q-18 0 -19 20v111q0 20 23 20h264l8 70q20 168 117.5 262t257.5 94q86 0 153 -20q16 -4 17 -35v-105q0 -20 -17 -20q-2 0 -14 4q-66 25 -135 25q-197 0 -221 -220l-6 -55h370q20 0 21 -20
v-111q0 -20 -21 -20h-391l-131 -971q-23 -172 -95.5 -252t-209.5 -80q-109 0 -178 29q-16 6 -17 35v106z" />
    <glyph glyph-name="endash" unicode="&#x2013;" 
d="M131 641v119q0 20 21 20h720q20 0 21 -20v-119q0 -20 -21 -20h-720q-21 0 -21 20z" />
    <glyph glyph-name="emdash" unicode="&#x2014;" 
d="M86 641v119q0 20 20 20h844q20 0 21 -20v-119q0 -20 -21 -20h-844q-20 0 -20 20z" />
    <glyph glyph-name="quoteleft" unicode="&#x2018;" 
d="M387 942v301q0 88 42 139.5t116 51.5h71q20 0 21 -21v-74q0 -20 -21 -20q-57 0 -75.5 -22.5t-18.5 -86.5v-39h94q20 0 21 -20v-209q0 -20 -21 -20h-208q-21 0 -21 20z" />
    <glyph glyph-name="quoteright" unicode="&#x2019;" 
d="M387 942v74q0 20 21 20q57 0 75.5 22.5t18.5 86.5v39h-94q-20 0 -21 20v209q0 20 21 21h208q20 0 21 -21v-301q0 -88 -42 -139t-116 -51h-71q-21 0 -21 20z" />
    <glyph glyph-name="quotesinglbase" unicode="&#x201a;" 
d="M387 20v209q0 20 21 21h208q20 0 21 -21v-301q0 -88 -42 -139t-116 -51h-71q-20 0 -21 20v74q0 20 21 21q57 0 75.5 22.5t18.5 85.5v39h-94q-21 0 -21 20z" />
    <glyph glyph-name="quotedblleft" unicode="&#x201c;" 
d="M182 942v301q0 88 42 139.5t116 51.5h72q20 0 20 -21v-74q0 -20 -20 -20q-57 0 -76 -22.5t-19 -86.5v-39h95q20 0 20 -20v-209q0 -20 -20 -20h-209q-21 0 -21 20zM592 942v301q0 88 42 139.5t116 51.5h71q20 0 21 -21v-74q0 -20 -21 -20q-57 0 -75.5 -22.5t-18.5 -86.5
v-39h94q20 0 21 -20v-209q0 -20 -21 -20h-209q-20 0 -20 20z" />
    <glyph glyph-name="quotedblright" unicode="&#x201d;" 
d="M182 942v74q0 20 21 20q57 0 75.5 22.5t18.5 86.5v39h-94q-20 0 -21 20v209q0 20 21 21h209q20 0 20 -21v-301q0 -88 -42 -139t-116 -51h-71q-21 0 -21 20zM592 942v74q0 20 20 20q57 0 76 22.5t19 86.5v39h-95q-20 0 -20 20v209q0 20 20 21h209q20 0 21 -21v-301
q0 -88 -42 -139t-116 -51h-72q-20 0 -20 20z" />
    <glyph glyph-name="quotedblbase" unicode="&#x201e;" 
d="M182 20v209q0 20 21 21h209q20 0 20 -21v-301q0 -88 -42 -139t-116 -51h-71q-20 0 -21 20v74q0 20 21 21q57 0 75.5 22.5t18.5 85.5v39h-94q-21 0 -21 20zM592 20v209q0 20 20 21h209q20 0 21 -21v-301q0 -88 -42 -139t-116 -51h-72q-20 0 -20 20v74q0 20 20 21
q57 0 76 22.5t19 85.5v39h-95q-20 0 -20 20z" />
    <glyph glyph-name="dagger" unicode="&#x2020;" 
d="M119 889v119q0 20 20 20h287v385q0 20 20 21h132q20 0 20 -21v-385h287q20 0 20 -20v-119q0 -20 -20 -21h-287v-1253q0 -20 -20 -21h-132q-20 0 -20 21v1253h-287q-20 1 -20 21z" />
    <glyph glyph-name="daggerdbl" unicode="&#x2021;" 
d="M119 20v119q0 20 20 21h287v708h-287q-20 0 -20 21v119q0 20 20 20h287v385q0 20 20 21h132q20 0 20 -21v-385h287q20 0 20 -20v-119q0 -20 -20 -21h-287v-708h287q20 0 20 -21v-119q0 -20 -20 -20h-287v-385q0 -20 -20 -21h-132q-20 0 -20 21v385h-287q-20 0 -20 20z
" />
    <glyph glyph-name="bullet" unicode="&#x2022;" 
d="M252 667.5q0 106.5 77 183.5t183 77t183 -77t77 -183.5t-77 -183t-183 -76.5t-183 76.5t-77 183z" />
    <glyph glyph-name="ellipsis" unicode="&#x2026;" 
d="M39 20v209q0 20 20 21h209q20 0 21 -21v-209q0 -20 -21 -20h-209q-20 0 -20 20zM387 20v209q0 20 21 21h208q20 0 21 -21v-209q0 -20 -21 -20h-208q-21 0 -21 20zM735 20v209q0 20 21 21h209q20 0 20 -21v-209q0 -20 -20 -20h-209q-21 0 -21 20z" />
    <glyph glyph-name="guilsinglleft" unicode="&#x2039;" 
d="M270 504v114q0 16 21 37l401 387q6 6 13 7q12 0 12 -15v-172q0 -18 -15 -33l-268 -268l268 -268q14 -14 15 -33v-172q0 -14 -12 -14q-6 0 -13 6l-401 387q-21 21 -21 37z" />
    <glyph glyph-name="guilsinglright" unicode="&#x203a;" 
d="M307 88v172q0 18 15 33l268 268l-268 268q-14 14 -15 33v172q0 14 12 15q6 0 13 -7l401 -387q20 -20 21 -37v-114q0 -16 -21 -37l-401 -387q-6 -6 -13 -6q-12 0 -12 14z" />
    <glyph glyph-name="Euro" unicode="&#x20ac;" 
d="M53 469v119q0 20 21 20h73q-2 35 -2 109t2 108h-73q-20 0 -21 21v119q0 20 21 20h92q41 229 148.5 349t275.5 120q176 0 287.5 -116.5t117.5 -288.5q0 -20 -20 -21h-121q-18 0 -20 21q-43 246 -250 245q-197 0 -250 -309h305q20 0 20 -20v-119q0 -20 -20 -21h-320
q-2 -35 -2 -108q0 -76 2 -109h320q20 0 20 -20v-119q0 -20 -20 -20h-305q53 -309 250 -310q207 0 250 246q2 20 20 21h121q20 0 20 -21q-6 -172 -117.5 -288.5t-287.5 -116.5q-168 0 -275.5 119.5t-148.5 349.5h-92q-21 0 -21 20z" />
    <glyph glyph-name="trademark" unicode="&#x2122;" 
d="M8 1343v70q0 20 21 21h389q20 0 20 -21v-70q0 -20 -20 -20h-137v-635q0 -20 -21 -20h-74q-20 0 -20 20v635h-137q-21 0 -21 20zM496 688v725q0 20 20 21h113q18 0 24 -17l82 -225l82 225q6 16 25 17h112q20 0 21 -21v-725q0 -20 -21 -20h-73q-20 0 -21 20v594l-82 -242
q-6 -12 -16 -12h-53q-10 0 -17 12l-82 242v-594q0 -20 -20 -20h-74q-20 0 -20 20z" />
    <glyph glyph-name="lozenge" unicode="&#x25ca;" 
d="M66 717q0 8 6 20l340 676q8 20 28 21h146q20 0 28 -21l338 -676q6 -12 6 -20t-6 -21l-338 -676q-8 -20 -28 -20h-146q-20 0 -28 20l-340 676q-6 13 -6 21zM236 717l276 -565l276 565l-276 565z" />
    <glyph glyph-name="uniE000" unicode="&#xe000;" horiz-adv-x="1030" 
d="M0 1030h1030v-1030h-1030v1030z" />
    <glyph glyph-name="NULL" horiz-adv-x="0" 
 />
    <glyph glyph-name="CR.001" horiz-adv-x="682" 
 />
  </font>
</defs>
</svg>
